<?xml version="1.0" encoding="utf-8"?>
<!-- Generator: Adobe Illustrator 25.0.1, SVG Export Plug-In . SVG Version: 6.00 Build 0)  -->
<svg version="1.1" id="Layer_1" xmlns="http://www.w3.org/2000/svg" xmlns:xlink="http://www.w3.org/1999/xlink" x="0px" y="0px"
	 viewBox="0 0 23.7 13.9" style="enable-background:new 0 0 23.7 13.9;" xml:space="preserve">
<style type="text/css">
	.st0{fill:#E8710A;}
	.st1{fill:#F9AB00;}
</style>
<g>
	<path class="st0" d="M4.4,4.4L2,2c-2.7,2.7-2.7,7.1,0,9.8l2.4-2.4C3,8.1,3,5.8,4.4,4.4z"/>
	<path class="st1" d="M2,2l2.3,2.4C5.8,3,8,3,9.5,4.4c0,0,0,0,0,0l1.7-2.9l0,0l-0.1-0.1l0,0C8.3-0.7,4.5-0.4,2,2z"/>
	<path class="st1" d="M11.2,12.4L11.2,12.4L9.5,9.5c-1.4,1.4-3.7,1.4-5.1,0c0,0,0,0,0,0L2,11.8c2.4,2.4,6.3,2.7,9,0.6L11.2,12.4"/>
	<path class="st0" d="M11.8,2c-2.7,2.7-2.7,7.1,0,9.8l2.4-2.4c-1.4-1.4-1.4-3.7,0-5.1s3.7-1.4,5.1,0L21.6,2
		C18.9-0.7,14.6-0.7,11.8,2C11.8,2,11.8,2,11.8,2z"/>
	<path class="st1" d="M21.6,2l-2.4,2.4c1.4,1.4,1.4,3.7,0,5.1s-3.7,1.4-5.1,0l0,0l-2.4,2.4c2.7,2.7,7.1,2.7,9.8,0S24.4,4.7,21.6,2
		L21.6,2z"/>
</g>
</svg>
