<svg width="274" height="272" viewBox="0 0 274 272" fill="none" xmlns="http://www.w3.org/2000/svg">
<g clip-path="url(#clip0_135_545)">
<path d="M296.193 46.0466C294.113 49.2743 292.127 52.5697 290.369 55.984C280.461 75.2101 274.559 94.0159 277.41 114.014C283.884 159.438 328.258 174.026 335.67 212.971C340.622 247.714 316.523 279.915 281.847 284.895C244.751 290.821 217.009 249.585 170.257 256.3C121.705 263.273 108.397 310.401 71.1238 315.163C36.4475 320.143 4.32057 296.014 -0.631353 261.27C-5.58327 226.527 18.5146 194.322 53.1909 189.342C90.2871 183.416 117.404 224.742 164.781 217.938C210.272 209.816 245.509 164.333 239.121 119.516C232.145 70.5662 185.162 57.5642 180.429 20.2185C175.477 -14.525 199.575 -46.7295 234.251 -51.7097C287.599 -59.7704 325.626 0.377261 296.193 46.0466Z" fill="#F5F6F6" style="fill:#F5F6F6;fill:color(display-p3 0.9608 0.9647 0.9647);fill-opacity:1;"/>
<path d="M44.25 32.511C45.1341 32.7955 45.75 33.6392 45.75 34.6082V38.8938C45.75 40.0304 44.9026 40.9943 43.7697 41.0867C43.4308 41.1144 43.0909 41.1386 42.75 41.1592V44.25L39.75 41.25C38.3963 41.25 37.0556 41.1948 35.7302 41.0866C35.4319 41.0623 35.1534 40.9775 34.9049 40.8451M44.25 32.511C44.0986 32.4623 43.9393 32.43 43.7739 32.4163C42.4472 32.3062 41.1051 32.25 39.75 32.25C38.3948 32.25 37.0528 32.3062 35.7261 32.4163C34.595 32.5101 33.75 33.4732 33.75 34.6082V38.8937C33.75 39.731 34.2099 40.4746 34.9049 40.8451M44.25 32.511V30.6373C44.25 29.0159 43.0983 27.6106 41.4903 27.4019C39.4478 27.1368 37.365 27 35.2503 27C33.1353 27 31.0523 27.1368 29.0096 27.402C27.4017 27.6107 26.25 29.016 26.25 30.6374V36.8626C26.25 38.484 27.4017 39.8893 29.0096 40.098C29.5866 40.1729 30.1668 40.2376 30.75 40.2918V45L34.9049 40.8451" stroke="#4D5157" style="stroke:#4D5157;stroke:color(display-p3 0.3020 0.3176 0.3412);stroke-opacity:1;" stroke-width="1.5" stroke-linecap="round" stroke-linejoin="round"/>
<path d="M27.1 81.2C26.62 81.2 26.1433 81.15 25.67 81.05C25.2033 80.9567 24.8733 80.88 24.68 80.82L24.77 78.56C24.97 78.62 25.2 78.6933 25.46 78.78C25.72 78.86 26.0233 78.9 26.37 78.9C27.0367 78.9 27.4867 78.72 27.72 78.36C27.96 78 28.08 77.41 28.08 76.59V66.54H30.52V77.25C30.52 78.11 30.4233 78.8333 30.23 79.42C30.0433 80 29.7033 80.4433 29.21 80.75C28.7167 81.05 28.0133 81.2 27.1 81.2ZM37.8802 81.2C36.8935 81.2 36.0335 80.99 35.3002 80.57C34.5668 80.1433 33.9968 79.5333 33.5902 78.74C33.1902 77.9467 32.9902 76.9933 32.9902 75.88C32.9902 74.8 33.1868 73.8533 33.5802 73.04C33.9735 72.2267 34.5335 71.5933 35.2602 71.14C35.9935 70.6867 36.8702 70.46 37.8902 70.46C38.8768 70.46 39.7335 70.6767 40.4602 71.11C41.1868 71.5433 41.7468 72.1633 42.1402 72.97C42.5402 73.7767 42.7402 74.7467 42.7402 75.88C42.7402 76.9267 42.5502 77.85 42.1702 78.65C41.7968 79.4433 41.2468 80.0667 40.5202 80.52C39.8002 80.9733 38.9202 81.2 37.8802 81.2ZM37.8902 79.35C38.4502 79.35 38.9102 79.1967 39.2702 78.89C39.6368 78.5833 39.9102 78.1633 40.0902 77.63C40.2702 77.0967 40.3602 76.49 40.3602 75.81C40.3602 75.1767 40.2802 74.5933 40.1202 74.06C39.9602 73.5267 39.6968 73.1 39.3302 72.78C38.9702 72.4533 38.4902 72.29 37.8902 72.29C37.3235 72.29 36.8535 72.44 36.4802 72.74C36.1135 73.0333 35.8402 73.4467 35.6602 73.98C35.4802 74.5067 35.3902 75.1167 35.3902 75.81C35.3902 76.4367 35.4702 77.02 35.6302 77.56C35.7902 78.0933 36.0535 78.5267 36.4202 78.86C36.7868 79.1867 37.2768 79.35 37.8902 79.35ZM45.2559 81V70.66H47.5859V81H45.2559ZM45.2159 68.85V66.55H47.6259V68.85H45.2159ZM50.7198 81V70.66H53.0998V72.14C53.2598 71.8733 53.4765 71.6167 53.7498 71.37C54.0298 71.1233 54.3732 70.9233 54.7798 70.77C55.1865 70.6167 55.6632 70.54 56.2098 70.54C56.8498 70.54 57.4432 70.6667 57.9898 70.92C58.5432 71.1733 58.9865 71.57 59.3198 72.11C59.6598 72.65 59.8298 73.3467 59.8298 74.2V81H57.3898V74.49C57.3898 73.81 57.2032 73.3067 56.8298 72.98C56.4565 72.6467 55.9865 72.48 55.4198 72.48C55.0332 72.48 54.6665 72.5467 54.3198 72.68C53.9732 72.8067 53.6898 73.0033 53.4698 73.27C53.2565 73.53 53.1498 73.8567 53.1498 74.25V81H50.7198ZM71.7566 81.08C70.9366 81.08 70.2999 80.9733 69.8466 80.76C69.3999 80.54 69.0899 80.23 68.9166 79.83C68.7432 79.43 68.6566 78.9533 68.6566 78.4V72.38H66.9766V70.66H68.7266L69.3366 67.59H71.0866V70.65H73.3966V72.38H71.0866L71.0966 78.31C71.0966 78.6167 71.1299 78.8433 71.1966 78.99C71.2699 79.13 71.3832 79.2233 71.5366 79.27C71.6966 79.31 71.9066 79.33 72.1666 79.33H73.4466V80.87C73.3066 80.9233 73.0999 80.97 72.8266 81.01C72.5599 81.0567 72.2032 81.08 71.7566 81.08ZM75.9425 81V66.14H78.3425V72.16C78.5092 71.9 78.7292 71.65 79.0025 71.41C79.2758 71.1633 79.6092 70.9633 80.0025 70.81C80.4025 70.65 80.8792 70.57 81.4325 70.57C82.0925 70.57 82.6958 70.6967 83.2425 70.95C83.7892 71.2033 84.2258 71.57 84.5525 72.05C84.8792 72.5233 85.0425 73.09 85.0425 73.75V81H82.6025V74.16C82.6025 73.6267 82.4125 73.2133 82.0325 72.92C81.6592 72.6267 81.1858 72.48 80.6125 72.48C80.2325 72.48 79.8692 72.5467 79.5225 72.68C79.1758 72.8133 78.8958 73.0133 78.6825 73.28C78.4758 73.54 78.3725 73.8667 78.3725 74.26V81H75.9425ZM92.4617 81.2C91.4684 81.2 90.5917 80.99 89.8317 80.57C89.0784 80.1433 88.4884 79.5367 88.0617 78.75C87.6417 77.9633 87.4317 77.0267 87.4317 75.94C87.4317 74.88 87.6217 73.94 88.0017 73.12C88.3884 72.2933 88.9451 71.6433 89.6717 71.17C90.4051 70.6967 91.2884 70.46 92.3217 70.46C93.3417 70.46 94.1984 70.6767 94.8917 71.11C95.5851 71.5433 96.1117 72.15 96.4717 72.93C96.8317 73.7033 97.0117 74.61 97.0117 75.65V76.39H89.8617C89.8551 76.9767 89.9484 77.4967 90.1417 77.95C90.3351 78.4033 90.6217 78.76 91.0017 79.02C91.3817 79.2733 91.8517 79.4 92.4117 79.4C92.9851 79.4 93.4817 79.2733 93.9017 79.02C94.3284 78.76 94.6117 78.3667 94.7517 77.84H96.9717C96.8517 78.56 96.5651 79.17 96.1117 79.67C95.6651 80.17 95.1184 80.55 94.4717 80.81C93.8317 81.07 93.1617 81.2 92.4617 81.2ZM89.8517 74.88H94.7117C94.7117 74.38 94.6217 73.93 94.4417 73.53C94.2684 73.1233 94.0051 72.8033 93.6517 72.57C93.2984 72.33 92.8517 72.21 92.3117 72.21C91.7784 72.21 91.3284 72.34 90.9617 72.6C90.5951 72.86 90.3184 73.1967 90.1317 73.61C89.9451 74.0167 89.8517 74.44 89.8517 74.88ZM110.327 81.2C108.994 81.2 107.917 80.98 107.097 80.54C106.284 80.0933 105.694 79.4533 105.327 78.62C104.961 77.78 104.777 76.7667 104.777 75.58V66.54H107.267V75.83C107.267 76.95 107.541 77.7767 108.087 78.31C108.641 78.8433 109.387 79.11 110.327 79.11C110.961 79.11 111.511 78.9933 111.977 78.76C112.444 78.5267 112.804 78.17 113.057 77.69C113.311 77.2033 113.437 76.5833 113.437 75.83V66.54H115.897V75.72C115.897 76.8667 115.711 77.85 115.337 78.67C114.964 79.4833 114.367 80.11 113.547 80.55C112.734 80.9833 111.661 81.2 110.327 81.2ZM122.895 81.2C122.175 81.2 121.491 81.0867 120.845 80.86C120.205 80.6267 119.665 80.2633 119.225 79.77C118.791 79.2767 118.518 78.64 118.405 77.86H120.545C120.638 78.24 120.801 78.55 121.035 78.79C121.275 79.03 121.555 79.2067 121.875 79.32C122.201 79.4267 122.538 79.48 122.885 79.48C123.505 79.48 124.005 79.3733 124.385 79.16C124.765 78.9467 124.955 78.6167 124.955 78.17C124.955 77.8433 124.848 77.5833 124.635 77.39C124.428 77.1967 124.088 77.05 123.615 76.95L121.655 76.5C120.775 76.3067 120.071 75.9867 119.545 75.54C119.018 75.0933 118.751 74.4633 118.745 73.65C118.738 73.0367 118.891 72.49 119.205 72.01C119.518 71.53 119.985 71.1533 120.605 70.88C121.225 70.6 121.988 70.46 122.895 70.46C124.101 70.46 125.068 70.73 125.795 71.27C126.528 71.8033 126.905 72.5667 126.925 73.56H124.855C124.781 73.1133 124.571 72.7667 124.225 72.52C123.878 72.2667 123.428 72.14 122.875 72.14C122.301 72.14 121.831 72.25 121.465 72.47C121.098 72.69 120.915 73.0267 120.915 73.48C120.915 73.7933 121.051 74.04 121.325 74.22C121.605 74.4 122.028 74.5533 122.595 74.68L124.455 75.13C124.988 75.2633 125.425 75.4433 125.765 75.67C126.105 75.8967 126.368 76.1467 126.555 76.42C126.748 76.6867 126.881 76.9633 126.955 77.25C127.035 77.53 127.075 77.79 127.075 78.03C127.075 78.6967 126.901 79.2667 126.555 79.74C126.215 80.2067 125.731 80.5667 125.105 80.82C124.485 81.0733 123.748 81.2 122.895 81.2ZM134.106 81.2C133.113 81.2 132.236 80.99 131.476 80.57C130.723 80.1433 130.133 79.5367 129.706 78.75C129.286 77.9633 129.076 77.0267 129.076 75.94C129.076 74.88 129.266 73.94 129.646 73.12C130.033 72.2933 130.59 71.6433 131.316 71.17C132.05 70.6967 132.933 70.46 133.966 70.46C134.986 70.46 135.843 70.6767 136.536 71.11C137.23 71.5433 137.756 72.15 138.116 72.93C138.476 73.7033 138.656 74.61 138.656 75.65V76.39H131.506C131.5 76.9767 131.593 77.4967 131.786 77.95C131.98 78.4033 132.266 78.76 132.646 79.02C133.026 79.2733 133.496 79.4 134.056 79.4C134.63 79.4 135.126 79.2733 135.546 79.02C135.973 78.76 136.256 78.3667 136.396 77.84H138.616C138.496 78.56 138.21 79.17 137.756 79.67C137.31 80.17 136.763 80.55 136.116 80.81C135.476 81.07 134.806 81.2 134.106 81.2ZM131.496 74.88H136.356C136.356 74.38 136.266 73.93 136.086 73.53C135.913 73.1233 135.65 72.8033 135.296 72.57C134.943 72.33 134.496 72.21 133.956 72.21C133.423 72.21 132.973 72.34 132.606 72.6C132.24 72.86 131.963 73.1967 131.776 73.61C131.59 74.0167 131.496 74.44 131.496 74.88ZM141.232 81V70.66H143.562V72.9C143.728 72.3867 143.965 71.95 144.272 71.59C144.585 71.2233 144.952 70.9433 145.372 70.75C145.792 70.5567 146.248 70.46 146.742 70.46C146.862 70.46 146.978 70.4667 147.092 70.48C147.205 70.4933 147.288 70.5167 147.342 70.55V72.88C147.268 72.8467 147.172 72.8233 147.052 72.81C146.938 72.7967 146.838 72.79 146.752 72.79C146.252 72.75 145.808 72.77 145.422 72.85C145.042 72.93 144.718 73.0667 144.452 73.26C144.192 73.4467 143.995 73.6867 143.862 73.98C143.728 74.2667 143.662 74.6033 143.662 74.99V81H141.232ZM25.75 109V94.54H31.62C32.7267 94.54 33.6367 94.7133 34.35 95.06C35.07 95.4 35.6033 95.8833 35.95 96.51C36.2967 97.13 36.47 97.8567 36.47 98.69C36.47 99.4633 36.3433 100.113 36.09 100.64C35.8367 101.16 35.5067 101.587 35.1 101.92C34.7 102.247 34.27 102.513 33.81 102.72L36.57 109H34.03L31.54 103.13H28.18V109H25.75ZM28.18 101.2H31.07C31.99 101.2 32.7067 100.987 33.22 100.56C33.74 100.133 34 99.54 34 98.78C34 98.0333 33.76 97.4567 33.28 97.05C32.8 96.6433 32.1667 96.44 31.38 96.44H28.18V101.2ZM43.5789 109.2C42.5856 109.2 41.7089 108.99 40.9489 108.57C40.1956 108.143 39.6056 107.537 39.1789 106.75C38.7589 105.963 38.5489 105.027 38.5489 103.94C38.5489 102.88 38.7389 101.94 39.1189 101.12C39.5056 100.293 40.0622 99.6433 40.7889 99.17C41.5222 98.6967 42.4056 98.46 43.4389 98.46C44.4589 98.46 45.3156 98.6767 46.0089 99.11C46.7022 99.5433 47.2289 100.15 47.5889 100.93C47.9489 101.703 48.1289 102.61 48.1289 103.65V104.39H40.9789C40.9722 104.977 41.0656 105.497 41.2589 105.95C41.4522 106.403 41.7389 106.76 42.1189 107.02C42.4989 107.273 42.9689 107.4 43.5289 107.4C44.1022 107.4 44.5989 107.273 45.0189 107.02C45.4456 106.76 45.7289 106.367 45.8689 105.84H48.0889C47.9689 106.56 47.6822 107.17 47.2289 107.67C46.7822 108.17 46.2356 108.55 45.5889 108.81C44.9489 109.07 44.2789 109.2 43.5789 109.2ZM40.9689 102.88H45.8289C45.8289 102.38 45.7389 101.93 45.5589 101.53C45.3856 101.123 45.1222 100.803 44.7689 100.57C44.4156 100.33 43.9689 100.21 43.4289 100.21C42.8956 100.21 42.4456 100.34 42.0789 100.6C41.7122 100.86 41.4356 101.197 41.2489 101.61C41.0622 102.017 40.9689 102.44 40.9689 102.88ZM54.6252 109.2C53.9052 109.2 53.2218 109.087 52.5752 108.86C51.9352 108.627 51.3952 108.263 50.9552 107.77C50.5218 107.277 50.2485 106.64 50.1352 105.86H52.2752C52.3685 106.24 52.5318 106.55 52.7652 106.79C53.0052 107.03 53.2852 107.207 53.6052 107.32C53.9318 107.427 54.2685 107.48 54.6152 107.48C55.2352 107.48 55.7352 107.373 56.1152 107.16C56.4952 106.947 56.6852 106.617 56.6852 106.17C56.6852 105.843 56.5785 105.583 56.3652 105.39C56.1585 105.197 55.8185 105.05 55.3452 104.95L53.3852 104.5C52.5052 104.307 51.8018 103.987 51.2752 103.54C50.7485 103.093 50.4818 102.463 50.4752 101.65C50.4685 101.037 50.6218 100.49 50.9352 100.01C51.2485 99.53 51.7152 99.1533 52.3352 98.88C52.9552 98.6 53.7185 98.46 54.6252 98.46C55.8318 98.46 56.7985 98.73 57.5252 99.27C58.2585 99.8033 58.6352 100.567 58.6552 101.56H56.5852C56.5118 101.113 56.3018 100.767 55.9552 100.52C55.6085 100.267 55.1585 100.14 54.6052 100.14C54.0318 100.14 53.5618 100.25 53.1952 100.47C52.8285 100.69 52.6452 101.027 52.6452 101.48C52.6452 101.793 52.7818 102.04 53.0552 102.22C53.3352 102.4 53.7585 102.553 54.3252 102.68L56.1852 103.13C56.7185 103.263 57.1552 103.443 57.4952 103.67C57.8352 103.897 58.0985 104.147 58.2852 104.42C58.4785 104.687 58.6118 104.963 58.6852 105.25C58.7652 105.53 58.8052 105.79 58.8052 106.03C58.8052 106.697 58.6318 107.267 58.2852 107.74C57.9452 108.207 57.4618 108.567 56.8352 108.82C56.2152 109.073 55.4785 109.2 54.6252 109.2ZM65.8367 109.2C64.8434 109.2 63.9667 108.99 63.2067 108.57C62.4534 108.143 61.8634 107.537 61.4367 106.75C61.0167 105.963 60.8067 105.027 60.8067 103.94C60.8067 102.88 60.9967 101.94 61.3767 101.12C61.7634 100.293 62.3201 99.6433 63.0467 99.17C63.7801 98.6967 64.6634 98.46 65.6967 98.46C66.7167 98.46 67.5734 98.6767 68.2667 99.11C68.9601 99.5433 69.4867 100.15 69.8467 100.93C70.2067 101.703 70.3867 102.61 70.3867 103.65V104.39H63.2367C63.2301 104.977 63.3234 105.497 63.5167 105.95C63.7101 106.403 63.9967 106.76 64.3767 107.02C64.7567 107.273 65.2267 107.4 65.7867 107.4C66.3601 107.4 66.8567 107.273 67.2767 107.02C67.7034 106.76 67.9867 106.367 68.1267 105.84H70.3467C70.2267 106.56 69.9401 107.17 69.4867 107.67C69.0401 108.17 68.4934 108.55 67.8467 108.81C67.2067 109.07 66.5367 109.2 65.8367 109.2ZM63.2267 102.88H68.0867C68.0867 102.38 67.9967 101.93 67.8167 101.53C67.6434 101.123 67.3801 100.803 67.0267 100.57C66.6734 100.33 66.2267 100.21 65.6867 100.21C65.1534 100.21 64.7034 100.34 64.3367 100.6C63.9701 100.86 63.6934 101.197 63.5067 101.61C63.3201 102.017 63.2267 102.44 63.2267 102.88ZM75.8544 109.2C75.1944 109.2 74.601 109.08 74.0744 108.84C73.5544 108.593 73.1444 108.243 72.8444 107.79C72.551 107.33 72.4044 106.773 72.4044 106.12C72.4044 104.98 72.8144 104.12 73.6344 103.54C74.461 102.96 75.7744 102.657 77.5744 102.63L79.1244 102.59V101.89C79.1244 101.343 78.961 100.917 78.6344 100.61C78.3144 100.297 77.8144 100.143 77.1344 100.15C76.6277 100.157 76.1677 100.277 75.7544 100.51C75.341 100.737 75.0677 101.12 74.9344 101.66H72.8644C72.9044 100.953 73.1077 100.363 73.4744 99.89C73.8477 99.41 74.3577 99.0533 75.0044 98.82C75.651 98.58 76.3977 98.46 77.2444 98.46C78.231 98.46 79.0344 98.59 79.6544 98.85C80.2744 99.11 80.731 99.4867 81.0244 99.98C81.3177 100.467 81.4644 101.057 81.4644 101.75V109H79.4144L79.2144 107.14C78.8477 107.92 78.3777 108.46 77.8044 108.76C77.2377 109.053 76.5877 109.2 75.8544 109.2ZM76.6444 107.55C76.9444 107.55 77.241 107.497 77.5344 107.39C77.8277 107.277 78.091 107.127 78.3244 106.94C78.5644 106.747 78.7544 106.533 78.8944 106.3C79.041 106.067 79.1177 105.823 79.1244 105.57V103.94L77.8544 103.96C77.2277 103.967 76.6777 104.033 76.2044 104.16C75.7377 104.287 75.3744 104.49 75.1144 104.77C74.8544 105.043 74.7244 105.41 74.7244 105.87C74.7244 106.397 74.9077 106.81 75.2744 107.11C75.641 107.403 76.0977 107.55 76.6444 107.55ZM84.3058 109V98.66H86.6358V100.9C86.8024 100.387 87.0391 99.95 87.3458 99.59C87.6591 99.2233 88.0258 98.9433 88.4458 98.75C88.8658 98.5567 89.3224 98.46 89.8158 98.46C89.9358 98.46 90.0524 98.4667 90.1658 98.48C90.2791 98.4933 90.3624 98.5167 90.4158 98.55V100.88C90.3424 100.847 90.2458 100.823 90.1258 100.81C90.0124 100.797 89.9124 100.79 89.8258 100.79C89.3258 100.75 88.8824 100.77 88.4958 100.85C88.1158 100.93 87.7924 101.067 87.5258 101.26C87.2658 101.447 87.0691 101.687 86.9358 101.98C86.8024 102.267 86.7358 102.603 86.7358 102.99V109H84.3058ZM96.8645 109.2C95.9179 109.2 95.0745 108.993 94.3345 108.58C93.6012 108.16 93.0245 107.553 92.6045 106.76C92.1845 105.96 91.9745 104.997 91.9745 103.87C91.9745 102.797 92.1712 101.857 92.5645 101.05C92.9645 100.237 93.5279 99.6033 94.2545 99.15C94.9879 98.69 95.8579 98.46 96.8645 98.46C97.6712 98.46 98.3812 98.62 98.9945 98.94C99.6079 99.26 100.098 99.7033 100.465 100.27C100.838 100.837 101.061 101.48 101.135 102.2H99.0645C99.0112 101.887 98.8945 101.59 98.7145 101.31C98.5345 101.023 98.2912 100.793 97.9845 100.62C97.6845 100.44 97.3179 100.35 96.8845 100.35C96.1045 100.35 95.4745 100.637 94.9945 101.21C94.5145 101.783 94.2745 102.663 94.2745 103.85C94.2745 104.943 94.5012 105.813 94.9545 106.46C95.4145 107.107 96.0712 107.43 96.9245 107.43C97.3512 107.43 97.7179 107.337 98.0245 107.15C98.3312 106.957 98.5712 106.72 98.7445 106.44C98.9245 106.153 99.0379 105.867 99.0845 105.58H101.105C101.045 106.28 100.828 106.903 100.455 107.45C100.081 107.997 99.5879 108.427 98.9745 108.74C98.3612 109.047 97.6579 109.2 96.8645 109.2ZM103.595 109V94.14H105.995V100.16C106.162 99.9 106.382 99.65 106.655 99.41C106.928 99.1633 107.262 98.9633 107.655 98.81C108.055 98.65 108.532 98.57 109.085 98.57C109.745 98.57 110.348 98.6967 110.895 98.95C111.442 99.2033 111.878 99.57 112.205 100.05C112.532 100.523 112.695 101.09 112.695 101.75V109H110.255V102.16C110.255 101.627 110.065 101.213 109.685 100.92C109.312 100.627 108.838 100.48 108.265 100.48C107.885 100.48 107.522 100.547 107.175 100.68C106.828 100.813 106.548 101.013 106.335 101.28C106.128 101.54 106.025 101.867 106.025 102.26V109H103.595ZM120.462 112.22V98.66H122.892L122.912 100.29C123.045 100.063 123.215 99.84 123.422 99.62C123.635 99.4 123.879 99.2033 124.152 99.03C124.432 98.8567 124.742 98.72 125.082 98.62C125.422 98.5133 125.795 98.46 126.202 98.46C126.995 98.46 127.699 98.65 128.312 99.03C128.925 99.4033 129.405 99.98 129.752 100.76C130.105 101.54 130.282 102.527 130.282 103.72C130.282 104.94 130.102 105.957 129.742 106.77C129.382 107.583 128.879 108.193 128.232 108.6C127.585 109 126.835 109.2 125.982 109.2C125.589 109.2 125.229 109.147 124.902 109.04C124.582 108.933 124.295 108.787 124.042 108.6C123.789 108.413 123.565 108.21 123.372 107.99C123.185 107.77 123.029 107.54 122.902 107.3V112.22H120.462ZM125.442 107.38C126.175 107.38 126.782 107.09 127.262 106.51C127.742 105.923 127.982 105.007 127.982 103.76C127.982 102.68 127.755 101.83 127.302 101.21C126.855 100.583 126.235 100.27 125.442 100.27C124.589 100.27 123.949 100.6 123.522 101.26C123.095 101.913 122.882 102.747 122.882 103.76C122.882 104.413 122.975 105.017 123.162 105.57C123.355 106.117 123.639 106.557 124.012 106.89C124.392 107.217 124.869 107.38 125.442 107.38ZM135.636 109.2C134.976 109.2 134.382 109.08 133.856 108.84C133.336 108.593 132.926 108.243 132.626 107.79C132.332 107.33 132.186 106.773 132.186 106.12C132.186 104.98 132.596 104.12 133.416 103.54C134.242 102.96 135.556 102.657 137.356 102.63L138.906 102.59V101.89C138.906 101.343 138.742 100.917 138.416 100.61C138.096 100.297 137.596 100.143 136.916 100.15C136.409 100.157 135.949 100.277 135.536 100.51C135.122 100.737 134.849 101.12 134.716 101.66H132.646C132.686 100.953 132.889 100.363 133.256 99.89C133.629 99.41 134.139 99.0533 134.786 98.82C135.432 98.58 136.179 98.46 137.026 98.46C138.012 98.46 138.816 98.59 139.436 98.85C140.056 99.11 140.512 99.4867 140.806 99.98C141.099 100.467 141.246 101.057 141.246 101.75V109H139.196L138.996 107.14C138.629 107.92 138.159 108.46 137.586 108.76C137.019 109.053 136.369 109.2 135.636 109.2ZM136.426 107.55C136.726 107.55 137.022 107.497 137.316 107.39C137.609 107.277 137.872 107.127 138.106 106.94C138.346 106.747 138.536 106.533 138.676 106.3C138.822 106.067 138.899 105.823 138.906 105.57V103.94L137.636 103.96C137.009 103.967 136.459 104.033 135.986 104.16C135.519 104.287 135.156 104.49 134.896 104.77C134.636 105.043 134.506 105.41 134.506 105.87C134.506 106.397 134.689 106.81 135.056 107.11C135.422 107.403 135.879 107.55 136.426 107.55ZM144.087 109V98.66H146.467V100.14C146.627 99.8733 146.844 99.6167 147.117 99.37C147.397 99.1233 147.74 98.9233 148.147 98.77C148.554 98.6167 149.03 98.54 149.577 98.54C150.217 98.54 150.81 98.6667 151.357 98.92C151.91 99.1733 152.354 99.57 152.687 100.11C153.027 100.65 153.197 101.347 153.197 102.2V109H150.757V102.49C150.757 101.81 150.57 101.307 150.197 100.98C149.824 100.647 149.354 100.48 148.787 100.48C148.4 100.48 148.034 100.547 147.687 100.68C147.34 100.807 147.057 101.003 146.837 101.27C146.624 101.53 146.517 101.857 146.517 102.25V109H144.087ZM160.626 109.2C159.632 109.2 158.756 108.99 157.996 108.57C157.242 108.143 156.652 107.537 156.226 106.75C155.806 105.963 155.596 105.027 155.596 103.94C155.596 102.88 155.786 101.94 156.166 101.12C156.552 100.293 157.109 99.6433 157.836 99.17C158.569 98.6967 159.452 98.46 160.486 98.46C161.506 98.46 162.362 98.6767 163.056 99.11C163.749 99.5433 164.276 100.15 164.636 100.93C164.996 101.703 165.176 102.61 165.176 103.65V104.39H158.026C158.019 104.977 158.112 105.497 158.306 105.95C158.499 106.403 158.786 106.76 159.166 107.02C159.546 107.273 160.016 107.4 160.576 107.4C161.149 107.4 161.646 107.273 162.066 107.02C162.492 106.76 162.776 106.367 162.916 105.84H165.136C165.016 106.56 164.729 107.17 164.276 107.67C163.829 108.17 163.282 108.55 162.636 108.81C161.996 109.07 161.326 109.2 160.626 109.2ZM158.016 102.88H162.876C162.876 102.38 162.786 101.93 162.606 101.53C162.432 101.123 162.169 100.803 161.816 100.57C161.462 100.33 161.016 100.21 160.476 100.21C159.942 100.21 159.492 100.34 159.126 100.6C158.759 100.86 158.482 101.197 158.296 101.61C158.109 102.017 158.016 102.44 158.016 102.88ZM170.731 109.15C170.064 109.15 169.531 109.067 169.131 108.9C168.731 108.733 168.431 108.51 168.231 108.23C168.031 107.95 167.901 107.637 167.841 107.29C167.781 106.937 167.751 106.577 167.751 106.21V94.14H170.131V105.93C170.131 106.377 170.221 106.723 170.401 106.97C170.588 107.217 170.888 107.36 171.301 107.4L171.821 107.42V108.95C171.641 109.003 171.458 109.05 171.271 109.09C171.084 109.13 170.904 109.15 170.731 109.15Z" fill="#1A1B1D" style="fill:#1A1B1D;fill:color(display-p3 0.1020 0.1059 0.1137);fill-opacity:1;"/>
<path d="M25.528 146V134.432H27.008V146H25.528ZM29.7553 146V137.728H31.1873V138.928C31.3206 138.699 31.5046 138.483 31.7393 138.28C31.9793 138.077 32.2673 137.915 32.6033 137.792C32.9446 137.669 33.3366 137.608 33.7793 137.608C34.3019 137.608 34.7819 137.712 35.2193 137.92C35.6619 138.128 36.0139 138.453 36.2753 138.896C36.5419 139.333 36.6753 139.899 36.6753 140.592V146H35.1953V140.736C35.1953 140.091 35.0246 139.613 34.6833 139.304C34.3473 138.989 33.9099 138.832 33.3713 138.832C32.9979 138.832 32.6486 138.893 32.3233 139.016C31.9979 139.133 31.7339 139.315 31.5313 139.56C31.3286 139.8 31.2273 140.104 31.2273 140.472V146H29.7553ZM39.828 146V138.808H38.076V137.728H39.828V136.448C39.828 135.792 39.9933 135.293 40.324 134.952C40.66 134.605 41.1613 134.432 41.828 134.432H43.388L43.396 135.48H42.164C41.8227 135.48 41.5907 135.571 41.468 135.752C41.3453 135.933 41.284 136.208 41.284 136.576V137.728H43.316V138.808H41.308V146H39.828ZM47.1401 146.104C46.6921 146.104 46.3295 146.043 46.0521 145.92C45.7801 145.797 45.5695 145.632 45.4201 145.424C45.2761 145.216 45.1775 144.979 45.1241 144.712C45.0761 144.44 45.0521 144.16 45.0521 143.872V134.112H46.5081V143.728C46.5081 144.144 46.5881 144.456 46.7481 144.664C46.9135 144.872 47.1428 144.987 47.4361 145.008L47.8841 145.016V145.976C47.7615 146.013 47.6335 146.043 47.5001 146.064C47.3668 146.091 47.2468 146.104 47.1401 146.104ZM52.6703 146.16C52.2383 146.155 51.8303 146.093 51.4463 145.976C51.0676 145.853 50.7316 145.675 50.4383 145.44C50.1449 145.205 49.9129 144.915 49.7423 144.568C49.5769 144.216 49.4943 143.808 49.4943 143.344V137.728H50.9743V143.192C50.9743 143.731 51.1396 144.168 51.4703 144.504C51.8063 144.84 52.3103 145.008 52.9823 145.008C53.5903 145.008 54.0783 144.851 54.4463 144.536C54.8196 144.216 55.0063 143.741 55.0063 143.112V137.728H56.4783V146H55.3023L55.1503 144.416C55.0489 144.832 54.8756 145.168 54.6303 145.424C54.3903 145.68 54.0996 145.869 53.7583 145.992C53.4223 146.109 53.0596 146.165 52.6703 146.16ZM62.4075 146.16C61.6395 146.16 60.9622 145.992 60.3755 145.656C59.7888 145.32 59.3302 144.837 58.9995 144.208C58.6688 143.579 58.5035 142.824 58.5035 141.944C58.5035 141.075 58.6528 140.312 58.9515 139.656C59.2502 139 59.6822 138.488 60.2475 138.12C60.8182 137.752 61.5035 137.568 62.3035 137.568C63.0822 137.568 63.7408 137.736 64.2795 138.072C64.8182 138.408 65.2262 138.883 65.5035 139.496C65.7862 140.104 65.9275 140.827 65.9275 141.664V142.208H59.9995C59.9995 142.731 60.0848 143.205 60.2555 143.632C60.4315 144.053 60.6955 144.389 61.0475 144.64C61.3995 144.891 61.8448 145.016 62.3835 145.016C62.9115 145.016 63.3648 144.893 63.7435 144.648C64.1275 144.403 64.3728 144.048 64.4795 143.584H65.8715C65.7755 144.144 65.5515 144.616 65.1995 145C64.8528 145.384 64.4342 145.675 63.9435 145.872C63.4582 146.064 62.9462 146.16 62.4075 146.16ZM60.0075 141.208H64.5035C64.5035 140.733 64.4235 140.307 64.2635 139.928C64.1035 139.544 63.8582 139.243 63.5275 139.024C63.2022 138.8 62.7915 138.688 62.2955 138.688C61.7782 138.688 61.3488 138.813 61.0075 139.064C60.6662 139.309 60.4128 139.627 60.2475 140.016C60.0822 140.4 60.0022 140.797 60.0075 141.208ZM67.974 146V137.728H69.406V138.928C69.5393 138.699 69.7233 138.483 69.958 138.28C70.198 138.077 70.486 137.915 70.822 137.792C71.1633 137.669 71.5553 137.608 71.998 137.608C72.5207 137.608 73.0007 137.712 73.438 137.92C73.8807 138.128 74.2327 138.453 74.494 138.896C74.7607 139.333 74.894 139.899 74.894 140.592V146H73.414V140.736C73.414 140.091 73.2433 139.613 72.902 139.304C72.566 138.989 72.1287 138.832 71.59 138.832C71.2167 138.832 70.8673 138.893 70.542 139.016C70.2167 139.133 69.9527 139.315 69.75 139.56C69.5473 139.8 69.446 140.104 69.446 140.472V146H67.974ZM80.5364 146.16C79.7897 146.16 79.1284 145.997 78.5524 145.672C77.9817 145.347 77.5337 144.867 77.2084 144.232C76.8884 143.597 76.7284 142.819 76.7284 141.896C76.7284 141.032 76.875 140.277 77.1684 139.632C77.467 138.981 77.899 138.475 78.4644 138.112C79.035 137.749 79.7257 137.568 80.5364 137.568C81.1284 137.568 81.659 137.683 82.1284 137.912C82.603 138.136 82.9924 138.456 83.2964 138.872C83.6004 139.288 83.787 139.779 83.8564 140.344H82.5444C82.4964 140.056 82.3844 139.792 82.2084 139.552C82.0377 139.312 81.811 139.12 81.5284 138.976C81.251 138.832 80.923 138.76 80.5444 138.76C79.835 138.76 79.2564 139.016 78.8084 139.528C78.3657 140.04 78.1444 140.824 78.1444 141.88C78.1444 142.835 78.347 143.6 78.7524 144.176C79.163 144.747 79.7657 145.032 80.5604 145.032C80.939 145.032 81.2697 144.96 81.5524 144.816C81.835 144.667 82.0617 144.472 82.2324 144.232C82.403 143.987 82.5124 143.725 82.5604 143.448H83.8484C83.779 144.003 83.5897 144.483 83.2804 144.888C82.9764 145.293 82.587 145.608 82.1124 145.832C81.643 146.051 81.1177 146.16 80.5364 146.16ZM89.3606 146.16C88.5926 146.16 87.9153 145.992 87.3286 145.656C86.742 145.32 86.2833 144.837 85.9526 144.208C85.622 143.579 85.4566 142.824 85.4566 141.944C85.4566 141.075 85.606 140.312 85.9046 139.656C86.2033 139 86.6353 138.488 87.2006 138.12C87.7713 137.752 88.4566 137.568 89.2566 137.568C90.0353 137.568 90.694 137.736 91.2326 138.072C91.7713 138.408 92.1793 138.883 92.4566 139.496C92.7393 140.104 92.8806 140.827 92.8806 141.664V142.208H86.9526C86.9526 142.731 87.038 143.205 87.2086 143.632C87.3846 144.053 87.6486 144.389 88.0006 144.64C88.3526 144.891 88.798 145.016 89.3366 145.016C89.8646 145.016 90.318 144.893 90.6966 144.648C91.0806 144.403 91.326 144.048 91.4326 143.584H92.8246C92.7286 144.144 92.5046 144.616 92.1526 145C91.806 145.384 91.3873 145.675 90.8966 145.872C90.4113 146.064 89.8993 146.16 89.3606 146.16ZM86.9606 141.208H91.4566C91.4566 140.733 91.3766 140.307 91.2166 139.928C91.0566 139.544 90.8113 139.243 90.4806 139.024C90.1553 138.8 89.7446 138.688 89.2486 138.688C88.7313 138.688 88.302 138.813 87.9606 139.064C87.6193 139.309 87.366 139.627 87.2006 140.016C87.0353 140.4 86.9553 140.797 86.9606 141.208ZM101.756 146.04C101.185 146.04 100.743 145.963 100.428 145.808C100.113 145.653 99.892 145.424 99.764 145.12C99.6413 144.816 99.58 144.443 99.58 144V138.808H98.236V137.728H99.62L99.98 135.32H101.068V137.72H102.932V138.808H101.068V143.952C101.068 144.245 101.097 144.461 101.156 144.6C101.22 144.733 101.324 144.819 101.468 144.856C101.612 144.893 101.815 144.912 102.076 144.912H102.98V145.904C102.879 145.941 102.724 145.973 102.516 146C102.313 146.027 102.06 146.04 101.756 146.04ZM104.943 146V134.112H106.383V138.944C106.521 138.715 106.708 138.501 106.943 138.304C107.177 138.101 107.463 137.939 107.799 137.816C108.135 137.688 108.524 137.624 108.967 137.624C109.505 137.624 109.993 137.725 110.431 137.928C110.868 138.125 111.215 138.408 111.471 138.776C111.727 139.144 111.855 139.581 111.855 140.088V146H110.375V140.384C110.375 139.888 110.204 139.507 109.863 139.24C109.527 138.968 109.087 138.832 108.543 138.832C108.175 138.832 107.828 138.893 107.503 139.016C107.177 139.133 106.913 139.315 106.711 139.56C106.513 139.8 106.415 140.107 106.415 140.48V146H104.943ZM117.658 146.16C116.89 146.16 116.212 145.992 115.626 145.656C115.039 145.32 114.58 144.837 114.25 144.208C113.919 143.579 113.754 142.824 113.754 141.944C113.754 141.075 113.903 140.312 114.202 139.656C114.5 139 114.932 138.488 115.498 138.12C116.068 137.752 116.754 137.568 117.554 137.568C118.332 137.568 118.991 137.736 119.53 138.072C120.068 138.408 120.476 138.883 120.754 139.496C121.036 140.104 121.178 140.827 121.178 141.664V142.208H115.25C115.25 142.731 115.335 143.205 115.506 143.632C115.682 144.053 115.946 144.389 116.298 144.64C116.65 144.891 117.095 145.016 117.634 145.016C118.162 145.016 118.615 144.893 118.994 144.648C119.378 144.403 119.623 144.048 119.73 143.584H121.122C121.025 144.144 120.802 144.616 120.45 145C120.103 145.384 119.684 145.675 119.194 145.872C118.708 146.064 118.196 146.16 117.658 146.16ZM115.258 141.208H119.754C119.754 140.733 119.674 140.307 119.514 139.928C119.354 139.544 119.108 139.243 118.778 139.024C118.452 138.8 118.042 138.688 117.546 138.688C117.028 138.688 116.599 138.813 116.258 139.064C115.916 139.309 115.663 139.627 115.498 140.016C115.332 140.4 115.252 140.797 115.258 141.208ZM128.125 146V138.808H126.373V137.728H128.125V136.448C128.125 135.792 128.29 135.293 128.621 134.952C128.957 134.605 129.458 134.432 130.125 134.432H131.685L131.693 135.48H130.461C130.12 135.48 129.888 135.571 129.765 135.752C129.642 135.933 129.581 136.208 129.581 136.576V137.728H131.613V138.808H129.605V146H128.125ZM136.389 146.16C135.957 146.155 135.549 146.093 135.165 145.976C134.786 145.853 134.45 145.675 134.157 145.44C133.864 145.205 133.632 144.915 133.461 144.568C133.296 144.216 133.213 143.808 133.213 143.344V137.728H134.693V143.192C134.693 143.731 134.858 144.168 135.189 144.504C135.525 144.84 136.029 145.008 136.701 145.008C137.309 145.008 137.797 144.851 138.165 144.536C138.538 144.216 138.725 143.741 138.725 143.112V137.728H140.197V146H139.021L138.869 144.416C138.768 144.832 138.594 145.168 138.349 145.424C138.109 145.68 137.818 145.869 137.477 145.992C137.141 146.109 136.778 146.165 136.389 146.16ZM145.662 146.04C145.092 146.04 144.649 145.963 144.334 145.808C144.02 145.653 143.798 145.424 143.67 145.12C143.548 144.816 143.486 144.443 143.486 144V138.808H142.142V137.728H143.526L143.886 135.32H144.974V137.72H146.838V138.808H144.974V143.952C144.974 144.245 145.004 144.461 145.062 144.6C145.126 144.733 145.23 144.819 145.374 144.856C145.518 144.893 145.721 144.912 145.982 144.912H146.886V145.904C146.785 145.941 146.63 145.973 146.422 146C146.22 146.027 145.966 146.04 145.662 146.04ZM151.811 146.16C151.379 146.155 150.971 146.093 150.587 145.976C150.208 145.853 149.872 145.675 149.579 145.44C149.286 145.205 149.054 144.915 148.883 144.568C148.718 144.216 148.635 143.808 148.635 143.344V137.728H150.115V143.192C150.115 143.731 150.28 144.168 150.611 144.504C150.947 144.84 151.451 145.008 152.123 145.008C152.731 145.008 153.219 144.851 153.587 144.536C153.96 144.216 154.147 143.741 154.147 143.112V137.728H155.619V146H154.443L154.291 144.416C154.19 144.832 154.016 145.168 153.771 145.424C153.531 145.68 153.24 145.869 152.899 145.992C152.563 146.109 152.2 146.165 151.811 146.16ZM158.146 146V137.728H159.554V139.32C159.693 138.925 159.887 138.6 160.138 138.344C160.389 138.083 160.674 137.888 160.994 137.76C161.319 137.632 161.655 137.568 162.002 137.568C162.125 137.568 162.245 137.576 162.362 137.592C162.479 137.608 162.57 137.635 162.634 137.672V139.104C162.554 139.067 162.45 139.043 162.322 139.032C162.199 139.016 162.095 139.008 162.01 139.008C161.679 138.987 161.37 139.008 161.082 139.072C160.794 139.131 160.541 139.235 160.322 139.384C160.103 139.533 159.93 139.731 159.802 139.976C159.679 140.216 159.618 140.509 159.618 140.856V146H158.146ZM167.767 146.16C166.999 146.16 166.322 145.992 165.735 145.656C165.148 145.32 164.69 144.837 164.359 144.208C164.028 143.579 163.863 142.824 163.863 141.944C163.863 141.075 164.012 140.312 164.311 139.656C164.61 139 165.042 138.488 165.607 138.12C166.178 137.752 166.863 137.568 167.663 137.568C168.442 137.568 169.1 137.736 169.639 138.072C170.178 138.408 170.586 138.883 170.863 139.496C171.146 140.104 171.287 140.827 171.287 141.664V142.208H165.359C165.359 142.731 165.444 143.205 165.615 143.632C165.791 144.053 166.055 144.389 166.407 144.64C166.759 144.891 167.204 145.016 167.743 145.016C168.271 145.016 168.724 144.893 169.103 144.648C169.487 144.403 169.732 144.048 169.839 143.584H171.231C171.135 144.144 170.911 144.616 170.559 145C170.212 145.384 169.794 145.675 169.303 145.872C168.818 146.064 168.306 146.16 167.767 146.16ZM165.367 141.208H169.863C169.863 140.733 169.783 140.307 169.623 139.928C169.463 139.544 169.218 139.243 168.887 139.024C168.562 138.8 168.151 138.688 167.655 138.688C167.138 138.688 166.708 138.813 166.367 139.064C166.026 139.309 165.772 139.627 165.607 140.016C165.442 140.4 165.362 140.797 165.367 141.208ZM180.239 146.16C179.476 146.16 178.81 145.997 178.239 145.672C177.674 145.341 177.234 144.859 176.919 144.224C176.604 143.589 176.447 142.813 176.447 141.896C176.447 141.032 176.594 140.275 176.887 139.624C177.18 138.973 177.61 138.469 178.175 138.112C178.74 137.749 179.431 137.568 180.247 137.568C181.01 137.568 181.671 137.736 182.231 138.072C182.791 138.403 183.226 138.891 183.535 139.536C183.85 140.181 184.007 140.968 184.007 141.896C184.007 142.739 183.863 143.48 183.575 144.12C183.287 144.76 182.863 145.261 182.303 145.624C181.748 145.981 181.06 146.16 180.239 146.16ZM180.247 144.992C180.738 144.992 181.154 144.867 181.495 144.616C181.836 144.365 182.095 144.005 182.271 143.536C182.452 143.067 182.543 142.509 182.543 141.864C182.543 141.272 182.463 140.741 182.303 140.272C182.148 139.797 181.903 139.421 181.567 139.144C181.231 138.867 180.791 138.728 180.247 138.728C179.746 138.728 179.322 138.853 178.975 139.104C178.628 139.349 178.364 139.707 178.183 140.176C178.007 140.645 177.919 141.208 177.919 141.864C177.919 142.445 177.996 142.973 178.151 143.448C178.311 143.923 178.562 144.299 178.903 144.576C179.25 144.853 179.698 144.992 180.247 144.992ZM186.75 146V138.808H184.998V137.728H186.75V136.448C186.75 135.792 186.915 135.293 187.246 134.952C187.582 134.605 188.083 134.432 188.75 134.432H190.31L190.318 135.48H189.086C188.745 135.48 188.513 135.571 188.39 135.752C188.267 135.933 188.206 136.208 188.206 136.576V137.728H190.238V138.808H188.23V146H186.75ZM196.169 146V134.432H197.585L203.697 143.424V134.432H205.177V146H203.857L197.649 136.88V146H196.169ZM211.314 146.16C210.546 146.16 209.868 145.992 209.282 145.656C208.695 145.32 208.236 144.837 207.906 144.208C207.575 143.579 207.41 142.824 207.41 141.944C207.41 141.075 207.559 140.312 207.858 139.656C208.156 139 208.588 138.488 209.154 138.12C209.724 137.752 210.41 137.568 211.21 137.568C211.988 137.568 212.647 137.736 213.186 138.072C213.724 138.408 214.132 138.883 214.41 139.496C214.692 140.104 214.834 140.827 214.834 141.664V142.208H208.906C208.906 142.731 208.991 143.205 209.162 143.632C209.338 144.053 209.602 144.389 209.954 144.64C210.306 144.891 210.751 145.016 211.29 145.016C211.818 145.016 212.271 144.893 212.65 144.648C213.034 144.403 213.279 144.048 213.386 143.584H214.778C214.682 144.144 214.458 144.616 214.106 145C213.759 145.384 213.34 145.675 212.85 145.872C212.364 146.064 211.852 146.16 211.314 146.16ZM208.914 141.208H213.41C213.41 140.733 213.33 140.307 213.17 139.928C213.01 139.544 212.764 139.243 212.434 139.024C212.108 138.8 211.698 138.688 211.202 138.688C210.684 138.688 210.255 138.813 209.914 139.064C209.572 139.309 209.319 139.627 209.154 140.016C208.988 140.4 208.908 140.797 208.914 141.208ZM220.192 146.16C219.43 146.16 218.763 145.997 218.192 145.672C217.627 145.341 217.187 144.859 216.872 144.224C216.558 143.589 216.4 142.813 216.4 141.896C216.4 141.032 216.547 140.275 216.84 139.624C217.134 138.973 217.563 138.469 218.128 138.112C218.694 137.749 219.384 137.568 220.2 137.568C220.963 137.568 221.624 137.736 222.184 138.072C222.744 138.403 223.179 138.891 223.488 139.536C223.803 140.181 223.96 140.968 223.96 141.896C223.96 142.739 223.816 143.48 223.528 144.12C223.24 144.76 222.816 145.261 222.256 145.624C221.702 145.981 221.014 146.16 220.192 146.16ZM220.2 144.992C220.691 144.992 221.107 144.867 221.448 144.616C221.79 144.365 222.048 144.005 222.224 143.536C222.406 143.067 222.496 142.509 222.496 141.864C222.496 141.272 222.416 140.741 222.256 140.272C222.102 139.797 221.856 139.421 221.52 139.144C221.184 138.867 220.744 138.728 220.2 138.728C219.699 138.728 219.275 138.853 218.928 139.104C218.582 139.349 218.318 139.707 218.136 140.176C217.96 140.645 217.872 141.208 217.872 141.864C217.872 142.445 217.95 142.973 218.104 143.448C218.264 143.923 218.515 144.299 218.856 144.576C219.203 144.853 219.651 144.992 220.2 144.992ZM230.895 146V143.048H225.447V141.696L230.839 134.432H232.343V141.744H234.263V143.048H232.343V146H230.895ZM226.863 141.744H230.863V136.376L226.863 141.744ZM235.438 148.656C234.984 148.656 234.699 148.624 234.582 148.56C234.459 148.496 234.398 148.464 234.398 148.464V147.48L235.214 147.44C235.587 147.413 235.848 147.315 235.998 147.144C236.147 146.973 236.222 146.699 236.222 146.32V137.728H237.702V146.368C237.702 147.141 237.534 147.715 237.198 148.088C236.867 148.467 236.28 148.656 235.438 148.656ZM236.174 135.976V134.44H237.742V135.976H236.174ZM25.224 172.576V161.728H26.696L26.712 163.168C26.808 162.997 26.9307 162.819 27.08 162.632C27.2347 162.445 27.4213 162.272 27.64 162.112C27.864 161.952 28.1227 161.821 28.416 161.72C28.7147 161.619 29.0533 161.568 29.432 161.568C30.0933 161.568 30.6747 161.72 31.176 162.024C31.6827 162.323 32.0773 162.781 32.36 163.4C32.6427 164.019 32.784 164.803 32.784 165.752C32.784 166.701 32.6453 167.504 32.368 168.16C32.096 168.811 31.7013 169.307 31.184 169.648C30.6667 169.989 30.0427 170.16 29.312 170.16C28.944 170.16 28.616 170.107 28.328 170C28.0453 169.899 27.7973 169.765 27.584 169.6C27.376 169.429 27.2 169.248 27.056 169.056C26.9173 168.864 26.8027 168.68 26.712 168.504V172.576H25.224ZM29.032 169.008C29.7147 169.008 30.272 168.749 30.704 168.232C31.136 167.709 31.352 166.899 31.352 165.8C31.352 164.856 31.1547 164.107 30.76 163.552C30.3653 162.997 29.7893 162.72 29.032 162.72C28.264 162.72 27.6827 163.005 27.288 163.576C26.8933 164.141 26.696 164.883 26.696 165.8C26.696 166.392 26.784 166.931 26.96 167.416C27.136 167.901 27.3973 168.288 27.744 168.576C28.0907 168.864 28.52 169.008 29.032 169.008ZM34.7553 170V161.728H36.1633V163.32C36.3019 162.925 36.4966 162.6 36.7473 162.344C36.9979 162.083 37.2833 161.888 37.6033 161.76C37.9286 161.632 38.2646 161.568 38.6113 161.568C38.7339 161.568 38.8539 161.576 38.9713 161.592C39.0886 161.608 39.1793 161.635 39.2433 161.672V163.104C39.1633 163.067 39.0593 163.043 38.9313 163.032C38.8086 163.016 38.7046 163.008 38.6193 163.008C38.2886 162.987 37.9793 163.008 37.6913 163.072C37.4033 163.131 37.1499 163.235 36.9313 163.384C36.7126 163.533 36.5393 163.731 36.4113 163.976C36.2886 164.216 36.2273 164.509 36.2273 164.856V170H34.7553ZM44.1923 170.16C43.4296 170.16 42.7629 169.997 42.1923 169.672C41.6269 169.341 41.1869 168.859 40.8723 168.224C40.5576 167.589 40.4003 166.813 40.4003 165.896C40.4003 165.032 40.5469 164.275 40.8403 163.624C41.1336 162.973 41.5629 162.469 42.1283 162.112C42.6936 161.749 43.3843 161.568 44.2003 161.568C44.9629 161.568 45.6243 161.736 46.1843 162.072C46.7443 162.403 47.1789 162.891 47.4883 163.536C47.8029 164.181 47.9603 164.968 47.9603 165.896C47.9603 166.739 47.8163 167.48 47.5283 168.12C47.2403 168.76 46.8163 169.261 46.2563 169.624C45.7016 169.981 45.0136 170.16 44.1923 170.16ZM44.2003 168.992C44.6909 168.992 45.1069 168.867 45.4483 168.616C45.7896 168.365 46.0483 168.005 46.2243 167.536C46.4056 167.067 46.4963 166.509 46.4963 165.864C46.4963 165.272 46.4163 164.741 46.2563 164.272C46.1016 163.797 45.8563 163.421 45.5203 163.144C45.1843 162.867 44.7443 162.728 44.2003 162.728C43.6989 162.728 43.2749 162.853 42.9283 163.104C42.5816 163.349 42.3176 163.707 42.1363 164.176C41.9603 164.645 41.8723 165.208 41.8723 165.864C41.8723 166.445 41.9496 166.973 42.1043 167.448C42.2643 167.923 42.5149 168.299 42.8563 168.576C43.2029 168.853 43.6509 168.992 44.2003 168.992ZM52.9431 170.16C51.8658 170.16 51.0125 169.792 50.3831 169.056C49.7591 168.32 49.4471 167.245 49.4471 165.832C49.4471 164.973 49.5725 164.224 49.8231 163.584C50.0738 162.944 50.4498 162.448 50.9511 162.096C51.4525 161.744 52.0765 161.568 52.8231 161.568C53.2231 161.568 53.5751 161.619 53.8791 161.72C54.1831 161.821 54.4471 161.949 54.6711 162.104C54.8951 162.259 55.0765 162.419 55.2151 162.584C55.3591 162.749 55.4658 162.901 55.5351 163.04V158.112H57.0311V170H55.8951L55.7351 168.304C55.6818 168.464 55.5965 168.651 55.4791 168.864C55.3618 169.072 55.1965 169.277 54.9831 169.48C54.7751 169.677 54.5031 169.84 54.1671 169.968C53.8311 170.096 53.4231 170.16 52.9431 170.16ZM53.2071 169.024C54.0391 169.024 54.6338 168.771 54.9911 168.264C55.3538 167.752 55.5351 166.917 55.5351 165.76C55.5298 165.115 55.4498 164.565 55.2951 164.112C55.1405 163.659 54.8951 163.315 54.5591 163.08C54.2285 162.84 53.7858 162.72 53.2311 162.72C52.5538 162.72 52.0018 162.963 51.5751 163.448C51.1485 163.933 50.9351 164.704 50.9351 165.76C50.9351 166.795 51.1271 167.597 51.5111 168.168C51.8951 168.739 52.4605 169.024 53.2071 169.024ZM62.514 170.16C62.082 170.155 61.674 170.093 61.29 169.976C60.9113 169.853 60.5753 169.675 60.282 169.44C59.9887 169.205 59.7567 168.915 59.586 168.568C59.4207 168.216 59.338 167.808 59.338 167.344V161.728H60.818V167.192C60.818 167.731 60.9833 168.168 61.314 168.504C61.65 168.84 62.154 169.008 62.826 169.008C63.434 169.008 63.922 168.851 64.29 168.536C64.6633 168.216 64.85 167.741 64.85 167.112V161.728H66.322V170H65.146L64.994 168.416C64.8927 168.832 64.7193 169.168 64.474 169.424C64.234 169.68 63.9433 169.869 63.602 169.992C63.266 170.109 62.9033 170.165 62.514 170.16ZM72.0833 170.16C71.3366 170.16 70.6753 169.997 70.0993 169.672C69.5286 169.347 69.0806 168.867 68.7553 168.232C68.4353 167.597 68.2753 166.819 68.2753 165.896C68.2753 165.032 68.4219 164.277 68.7153 163.632C69.0139 162.981 69.4459 162.475 70.0113 162.112C70.5819 161.749 71.2726 161.568 72.0833 161.568C72.6753 161.568 73.2059 161.683 73.6753 161.912C74.1499 162.136 74.5393 162.456 74.8433 162.872C75.1473 163.288 75.3339 163.779 75.4033 164.344H74.0913C74.0433 164.056 73.9313 163.792 73.7553 163.552C73.5846 163.312 73.3579 163.12 73.0753 162.976C72.7979 162.832 72.4699 162.76 72.0913 162.76C71.3819 162.76 70.8033 163.016 70.3553 163.528C69.9126 164.04 69.6913 164.824 69.6913 165.88C69.6913 166.835 69.8939 167.6 70.2993 168.176C70.7099 168.747 71.3126 169.032 72.1073 169.032C72.4859 169.032 72.8166 168.96 73.0993 168.816C73.3819 168.667 73.6086 168.472 73.7793 168.232C73.9499 167.987 74.0593 167.725 74.1073 167.448H75.3953C75.3259 168.003 75.1366 168.483 74.8273 168.888C74.5233 169.293 74.1339 169.608 73.6593 169.832C73.1899 170.051 72.6646 170.16 72.0833 170.16ZM80.1154 170.04C79.5447 170.04 79.102 169.963 78.7874 169.808C78.4727 169.653 78.2514 169.424 78.1234 169.12C78.0007 168.816 77.9394 168.443 77.9394 168V162.808H76.5954V161.728H77.9794L78.3394 159.32H79.4274V161.72H81.2914V162.808H79.4274V167.952C79.4274 168.245 79.4567 168.461 79.5154 168.6C79.5794 168.733 79.6834 168.819 79.8274 168.856C79.9714 168.893 80.174 168.912 80.4354 168.912H81.3394V169.904C81.238 169.941 81.0834 169.973 80.8754 170C80.6727 170.027 80.4194 170.04 80.1154 170.04ZM86.2469 170.16C85.6709 170.16 85.1349 170.072 84.6389 169.896C84.1482 169.715 83.7402 169.435 83.4149 169.056C83.0895 168.672 82.8869 168.184 82.8069 167.592H84.1509C84.2202 167.917 84.3535 168.189 84.5509 168.408C84.7482 168.621 84.9909 168.784 85.2789 168.896C85.5722 169.003 85.8922 169.056 86.2389 169.056C86.7989 169.056 87.2495 168.952 87.5909 168.744C87.9322 168.536 88.1029 168.216 88.1029 167.784C88.1029 167.48 88.0122 167.237 87.8309 167.056C87.6549 166.869 87.3775 166.733 86.9989 166.648L85.2869 166.224C84.6202 166.064 84.0869 165.813 83.6869 165.472C83.2922 165.131 83.0922 164.653 83.0869 164.04C83.0869 163.555 83.2042 163.128 83.4389 162.76C83.6735 162.392 84.0229 162.101 84.4869 161.888C84.9562 161.675 85.5402 161.568 86.2389 161.568C87.1402 161.568 87.8655 161.771 88.4149 162.176C88.9642 162.576 89.2522 163.165 89.2789 163.944H87.9669C87.9135 163.549 87.7375 163.237 87.4389 163.008C87.1402 162.773 86.7349 162.656 86.2229 162.656C85.7002 162.656 85.2709 162.763 84.9349 162.976C84.6042 163.184 84.4389 163.509 84.4389 163.952C84.4389 164.245 84.5562 164.477 84.7909 164.648C85.0309 164.813 85.3775 164.952 85.8309 165.064L87.4949 165.48C87.8735 165.581 88.1882 165.715 88.4389 165.88C88.6895 166.045 88.8869 166.229 89.0309 166.432C89.1749 166.635 89.2762 166.848 89.3349 167.072C89.3989 167.291 89.4309 167.501 89.4309 167.704C89.4309 168.211 89.3055 168.648 89.0549 169.016C88.8042 169.379 88.4415 169.661 87.9669 169.864C87.4922 170.061 86.9189 170.16 86.2469 170.16ZM99.2808 170.16C98.7954 170.16 98.3848 170.096 98.0488 169.968C97.7181 169.84 97.4461 169.677 97.2328 169.48C97.0194 169.277 96.8541 169.072 96.7368 168.864C96.6194 168.651 96.5341 168.464 96.4808 168.304L96.3207 170H95.1928V158.112H96.6808V163.04C96.7501 162.901 96.8541 162.749 96.9928 162.584C97.1368 162.419 97.3208 162.259 97.5448 162.104C97.7688 161.949 98.0328 161.821 98.3368 161.72C98.6461 161.619 98.9981 161.568 99.3928 161.568C100.427 161.568 101.249 161.928 101.857 162.648C102.47 163.368 102.777 164.429 102.777 165.832C102.777 166.701 102.646 167.461 102.385 168.112C102.123 168.757 101.734 169.261 101.217 169.624C100.699 169.981 100.054 170.16 99.2808 170.16ZM99.0168 169.024C99.6888 169.024 100.235 168.765 100.657 168.248C101.078 167.725 101.289 166.896 101.289 165.76C101.289 164.795 101.091 164.048 100.697 163.52C100.307 162.987 99.7368 162.72 98.9848 162.72C98.4354 162.72 97.9928 162.84 97.6568 163.08C97.3261 163.315 97.0808 163.659 96.9208 164.112C96.7661 164.565 96.6861 165.115 96.6808 165.76C96.6808 166.917 96.8594 167.752 97.2168 168.264C97.5794 168.771 98.1794 169.024 99.0168 169.024ZM105.454 172.64C104.969 172.64 104.636 172.605 104.454 172.536C104.273 172.467 104.182 172.432 104.182 172.432V171.472L105.03 171.488C105.334 171.499 105.588 171.477 105.79 171.424C105.993 171.371 106.156 171.299 106.278 171.208C106.401 171.117 106.494 171.016 106.558 170.904C106.628 170.792 106.684 170.685 106.726 170.584L107.014 169.8L103.782 161.728H105.278L107.718 168.112L110.142 161.728H111.59L108.11 170.624C107.892 171.147 107.649 171.555 107.382 171.848C107.121 172.141 106.828 172.347 106.502 172.464C106.182 172.581 105.833 172.64 105.454 172.64ZM119.997 170.16C119.421 170.16 118.885 170.072 118.389 169.896C117.898 169.715 117.49 169.435 117.165 169.056C116.84 168.672 116.637 168.184 116.557 167.592H117.901C117.97 167.917 118.104 168.189 118.301 168.408C118.498 168.621 118.741 168.784 119.029 168.896C119.322 169.003 119.642 169.056 119.989 169.056C120.549 169.056 121 168.952 121.341 168.744C121.682 168.536 121.853 168.216 121.853 167.784C121.853 167.48 121.762 167.237 121.581 167.056C121.405 166.869 121.128 166.733 120.749 166.648L119.037 166.224C118.37 166.064 117.837 165.813 117.437 165.472C117.042 165.131 116.842 164.653 116.837 164.04C116.837 163.555 116.954 163.128 117.189 162.76C117.424 162.392 117.773 162.101 118.237 161.888C118.706 161.675 119.29 161.568 119.989 161.568C120.89 161.568 121.616 161.771 122.165 162.176C122.714 162.576 123.002 163.165 123.029 163.944H121.717C121.664 163.549 121.488 163.237 121.189 163.008C120.89 162.773 120.485 162.656 119.973 162.656C119.45 162.656 119.021 162.763 118.685 162.976C118.354 163.184 118.189 163.509 118.189 163.952C118.189 164.245 118.306 164.477 118.541 164.648C118.781 164.813 119.128 164.952 119.581 165.064L121.245 165.48C121.624 165.581 121.938 165.715 122.189 165.88C122.44 166.045 122.637 166.229 122.781 166.432C122.925 166.635 123.026 166.848 123.085 167.072C123.149 167.291 123.181 167.501 123.181 167.704C123.181 168.211 123.056 168.648 122.805 169.016C122.554 169.379 122.192 169.661 121.717 169.864C121.242 170.061 120.669 170.16 119.997 170.16ZM125.115 170V158.112H126.555V162.944C126.693 162.715 126.88 162.501 127.115 162.304C127.349 162.101 127.635 161.939 127.971 161.816C128.307 161.688 128.696 161.624 129.139 161.624C129.677 161.624 130.165 161.725 130.603 161.928C131.04 162.125 131.387 162.408 131.643 162.776C131.899 163.144 132.027 163.581 132.027 164.088V170H130.547V164.384C130.547 163.888 130.376 163.507 130.035 163.24C129.699 162.968 129.259 162.832 128.715 162.832C128.347 162.832 128 162.893 127.675 163.016C127.349 163.133 127.085 163.315 126.883 163.56C126.685 163.8 126.587 164.107 126.587 164.48V170H125.115ZM136.622 170.16C136.083 170.16 135.609 170.067 135.198 169.88C134.793 169.688 134.473 169.413 134.238 169.056C134.009 168.699 133.894 168.267 133.894 167.76C133.894 166.843 134.214 166.16 134.854 165.712C135.494 165.264 136.521 165.024 137.934 164.992L139.406 164.952V164.304C139.406 163.797 139.254 163.397 138.95 163.104C138.646 162.805 138.177 162.656 137.542 162.656C137.067 162.661 136.649 162.773 136.286 162.992C135.923 163.211 135.691 163.568 135.59 164.064H134.286C134.318 163.525 134.467 163.072 134.734 162.704C135.006 162.331 135.387 162.048 135.878 161.856C136.369 161.664 136.947 161.568 137.614 161.568C138.334 161.568 138.931 161.669 139.406 161.872C139.886 162.075 140.243 162.373 140.478 162.768C140.718 163.163 140.838 163.648 140.838 164.224V170H139.574L139.462 168.448C139.147 169.093 138.742 169.541 138.246 169.792C137.755 170.037 137.214 170.16 136.622 170.16ZM137.062 169.096C137.345 169.096 137.622 169.045 137.894 168.944C138.171 168.843 138.422 168.707 138.646 168.536C138.875 168.36 139.059 168.165 139.198 167.952C139.337 167.733 139.406 167.509 139.406 167.28V165.864L138.182 165.888C137.547 165.899 137.019 165.963 136.598 166.08C136.177 166.197 135.859 166.381 135.646 166.632C135.433 166.883 135.326 167.211 135.326 167.616C135.326 168.08 135.489 168.443 135.814 168.704C136.139 168.965 136.555 169.096 137.062 169.096ZM143.146 170V161.728H144.554V163.32C144.693 162.925 144.887 162.6 145.138 162.344C145.389 162.083 145.674 161.888 145.994 161.76C146.319 161.632 146.655 161.568 147.002 161.568C147.125 161.568 147.245 161.576 147.362 161.592C147.479 161.608 147.57 161.635 147.634 161.672V163.104C147.554 163.067 147.45 163.043 147.322 163.032C147.199 163.016 147.095 163.008 147.01 163.008C146.679 162.987 146.37 163.008 146.082 163.072C145.794 163.131 145.541 163.235 145.322 163.384C145.103 163.533 144.93 163.731 144.802 163.976C144.679 164.216 144.618 164.509 144.618 164.856V170H143.146ZM149.436 170V161.728H150.868V170H149.436ZM149.396 159.976V158.44H150.908V159.976H149.396ZM153.443 170V161.728H154.875V162.928C155.008 162.699 155.192 162.483 155.427 162.28C155.667 162.077 155.955 161.915 156.291 161.792C156.632 161.669 157.024 161.608 157.467 161.608C157.989 161.608 158.469 161.712 158.907 161.92C159.349 162.128 159.701 162.453 159.963 162.896C160.229 163.333 160.363 163.899 160.363 164.592V170H158.883V164.736C158.883 164.091 158.712 163.613 158.371 163.304C158.035 162.989 157.597 162.832 157.059 162.832C156.685 162.832 156.336 162.893 156.011 163.016C155.685 163.133 155.421 163.315 155.219 163.56C155.016 163.8 154.915 164.104 154.915 164.472V170H153.443ZM166.173 172.736C164.877 172.736 163.866 172.547 163.141 172.168C162.416 171.795 162.053 171.259 162.053 170.56C162.053 170.261 162.122 170.008 162.261 169.8C162.4 169.587 162.565 169.411 162.757 169.272C162.949 169.133 163.128 169.024 163.293 168.944C163.458 168.859 163.568 168.797 163.621 168.76C163.525 168.707 163.41 168.64 163.277 168.56C163.144 168.48 163.024 168.373 162.917 168.24C162.816 168.107 162.765 167.933 162.765 167.72C162.765 167.459 162.888 167.219 163.133 167C163.378 166.781 163.744 166.619 164.229 166.512C163.744 166.267 163.365 165.941 163.093 165.536C162.821 165.131 162.685 164.691 162.685 164.216C162.685 163.683 162.829 163.219 163.117 162.824C163.405 162.429 163.818 162.128 164.357 161.92C164.896 161.707 165.538 161.6 166.285 161.6C166.824 161.6 167.274 161.664 167.637 161.792C168.005 161.915 168.346 162.091 168.661 162.32C168.746 162.283 168.882 162.227 169.069 162.152C169.256 162.072 169.458 161.987 169.677 161.896C169.901 161.805 170.109 161.72 170.301 161.64C170.498 161.555 170.656 161.491 170.773 161.448L170.765 162.816L169.317 163.088C169.402 163.259 169.469 163.445 169.517 163.648C169.565 163.851 169.589 164.04 169.589 164.216C169.589 164.701 169.461 165.141 169.205 165.536C168.954 165.931 168.573 166.245 168.061 166.48C167.549 166.715 166.909 166.832 166.141 166.832C166.077 166.832 165.994 166.832 165.893 166.832C165.797 166.827 165.714 166.821 165.645 166.816C165.08 166.832 164.69 166.896 164.477 167.008C164.269 167.115 164.165 167.235 164.165 167.368C164.165 167.523 164.285 167.629 164.525 167.688C164.765 167.747 165.17 167.797 165.741 167.84C165.949 167.851 166.205 167.864 166.509 167.88C166.818 167.896 167.162 167.917 167.541 167.944C168.405 167.997 169.072 168.219 169.541 168.608C170.01 168.997 170.245 169.523 170.245 170.184C170.245 170.936 169.909 171.549 169.237 172.024C168.57 172.499 167.549 172.736 166.173 172.736ZM166.437 171.784C167.2 171.784 167.784 171.669 168.189 171.44C168.6 171.211 168.805 170.864 168.805 170.4C168.805 170.069 168.68 169.8 168.429 169.592C168.178 169.379 167.8 169.256 167.293 169.224L164.973 169.072C164.765 169.061 164.549 169.115 164.325 169.232C164.101 169.344 163.912 169.501 163.757 169.704C163.602 169.907 163.525 170.136 163.525 170.392C163.525 170.829 163.762 171.171 164.237 171.416C164.712 171.661 165.445 171.784 166.437 171.784ZM166.189 165.88C166.781 165.88 167.258 165.741 167.621 165.464C167.989 165.187 168.173 164.776 168.173 164.232C168.173 163.672 167.989 163.245 167.621 162.952C167.258 162.659 166.781 162.512 166.189 162.512C165.581 162.512 165.09 162.661 164.717 162.96C164.349 163.253 164.165 163.677 164.165 164.232C164.165 164.755 164.341 165.16 164.693 165.448C165.05 165.736 165.549 165.88 166.189 165.88ZM177.251 172.64C176.766 172.64 176.432 172.605 176.251 172.536C176.07 172.467 175.979 172.432 175.979 172.432V171.472L176.827 171.488C177.131 171.499 177.384 171.477 177.587 171.424C177.79 171.371 177.952 171.299 178.075 171.208C178.198 171.117 178.291 171.016 178.355 170.904C178.424 170.792 178.48 170.685 178.523 170.584L178.811 169.8L175.579 161.728H177.075L179.515 168.112L181.939 161.728H183.387L179.907 170.624C179.688 171.147 179.446 171.555 179.179 171.848C178.918 172.141 178.624 172.347 178.299 172.464C177.979 172.581 177.63 172.64 177.251 172.64ZM188.145 170.16C187.383 170.16 186.716 169.997 186.145 169.672C185.58 169.341 185.14 168.859 184.825 168.224C184.511 167.589 184.353 166.813 184.353 165.896C184.353 165.032 184.5 164.275 184.793 163.624C185.087 162.973 185.516 162.469 186.081 162.112C186.647 161.749 187.337 161.568 188.153 161.568C188.916 161.568 189.577 161.736 190.137 162.072C190.697 162.403 191.132 162.891 191.441 163.536C191.756 164.181 191.913 164.968 191.913 165.896C191.913 166.739 191.769 167.48 191.481 168.12C191.193 168.76 190.769 169.261 190.209 169.624C189.655 169.981 188.967 170.16 188.145 170.16ZM188.153 168.992C188.644 168.992 189.06 168.867 189.401 168.616C189.743 168.365 190.001 168.005 190.177 167.536C190.359 167.067 190.449 166.509 190.449 165.864C190.449 165.272 190.369 164.741 190.209 164.272C190.055 163.797 189.809 163.421 189.473 163.144C189.137 162.867 188.697 162.728 188.153 162.728C187.652 162.728 187.228 162.853 186.881 163.104C186.535 163.349 186.271 163.707 186.089 164.176C185.913 164.645 185.825 165.208 185.825 165.864C185.825 166.445 185.903 166.973 186.057 167.448C186.217 167.923 186.468 168.299 186.809 168.576C187.156 168.853 187.604 168.992 188.153 168.992ZM196.889 170.16C196.457 170.155 196.049 170.093 195.665 169.976C195.286 169.853 194.95 169.675 194.657 169.44C194.364 169.205 194.132 168.915 193.961 168.568C193.796 168.216 193.713 167.808 193.713 167.344V161.728H195.193V167.192C195.193 167.731 195.358 168.168 195.689 168.504C196.025 168.84 196.529 169.008 197.201 169.008C197.809 169.008 198.297 168.851 198.665 168.536C199.038 168.216 199.225 167.741 199.225 167.112V161.728H200.697V170H199.521L199.369 168.416C199.268 168.832 199.094 169.168 198.849 169.424C198.609 169.68 198.318 169.869 197.977 169.992C197.641 170.109 197.278 170.165 196.889 170.16ZM203.224 170V161.728H204.632V163.32C204.771 162.925 204.965 162.6 205.216 162.344C205.467 162.083 205.752 161.888 206.072 161.76C206.397 161.632 206.733 161.568 207.08 161.568C207.203 161.568 207.323 161.576 207.44 161.592C207.557 161.608 207.648 161.635 207.712 161.672V163.104C207.632 163.067 207.528 163.043 207.4 163.032C207.277 163.016 207.173 163.008 207.088 163.008C206.757 162.987 206.448 163.008 206.16 163.072C205.872 163.131 205.619 163.235 205.4 163.384C205.181 163.533 205.008 163.731 204.88 163.976C204.757 164.216 204.696 164.509 204.696 164.856V170H203.224ZM28.72 194.16C27.952 194.16 27.2747 193.992 26.688 193.656C26.1013 193.32 25.6427 192.837 25.312 192.208C24.9813 191.579 24.816 190.824 24.816 189.944C24.816 189.075 24.9653 188.312 25.264 187.656C25.5627 187 25.9947 186.488 26.56 186.12C27.1307 185.752 27.816 185.568 28.616 185.568C29.3947 185.568 30.0533 185.736 30.592 186.072C31.1307 186.408 31.5387 186.883 31.816 187.496C32.0987 188.104 32.24 188.827 32.24 189.664V190.208H26.312C26.312 190.731 26.3973 191.205 26.568 191.632C26.744 192.053 27.008 192.389 27.36 192.64C27.712 192.891 28.1573 193.016 28.696 193.016C29.224 193.016 29.6773 192.893 30.056 192.648C30.44 192.403 30.6853 192.048 30.792 191.584H32.184C32.088 192.144 31.864 192.616 31.512 193C31.1653 193.384 30.7467 193.675 30.256 193.872C29.7707 194.064 29.2587 194.16 28.72 194.16ZM26.32 189.208H30.816C30.816 188.733 30.736 188.307 30.576 187.928C30.416 187.544 30.1707 187.243 29.84 187.024C29.5147 186.8 29.104 186.688 28.608 186.688C28.0907 186.688 27.6613 186.813 27.32 187.064C26.9787 187.309 26.7253 187.627 26.56 188.016C26.3947 188.4 26.3147 188.797 26.32 189.208ZM33.004 194L36.188 189.704L33.26 185.728H34.868L37.02 188.632L39.172 185.728H40.788L37.844 189.704L41.028 194H39.42L37.012 190.76L34.62 194H33.004ZM42.7553 196.576V185.728H44.2273L44.2433 187.168C44.3393 186.997 44.4619 186.819 44.6113 186.632C44.7659 186.445 44.9526 186.272 45.1713 186.112C45.3953 185.952 45.6539 185.821 45.9473 185.72C46.2459 185.619 46.5846 185.568 46.9633 185.568C47.6246 185.568 48.2059 185.72 48.7073 186.024C49.2139 186.323 49.6086 186.781 49.8913 187.4C50.1739 188.019 50.3153 188.803 50.3153 189.752C50.3153 190.701 50.1766 191.504 49.8993 192.16C49.6273 192.811 49.2326 193.307 48.7153 193.648C48.1979 193.989 47.5739 194.16 46.8433 194.16C46.4753 194.16 46.1473 194.107 45.8593 194C45.5766 193.899 45.3286 193.765 45.1153 193.6C44.9073 193.429 44.7313 193.248 44.5873 193.056C44.4486 192.864 44.3339 192.68 44.2433 192.504V196.576H42.7553ZM46.5633 193.008C47.2459 193.008 47.8033 192.749 48.2353 192.232C48.6673 191.709 48.8833 190.899 48.8833 189.8C48.8833 188.856 48.6859 188.107 48.2913 187.552C47.8966 186.997 47.3206 186.72 46.5633 186.72C45.7953 186.72 45.2139 187.005 44.8193 187.576C44.4246 188.141 44.2273 188.883 44.2273 189.8C44.2273 190.392 44.3153 190.931 44.4913 191.416C44.6673 191.901 44.9286 192.288 45.2753 192.576C45.6219 192.864 46.0513 193.008 46.5633 193.008ZM55.7825 194.16C55.0145 194.16 54.3372 193.992 53.7505 193.656C53.1638 193.32 52.7052 192.837 52.3745 192.208C52.0438 191.579 51.8785 190.824 51.8785 189.944C51.8785 189.075 52.0278 188.312 52.3265 187.656C52.6252 187 53.0572 186.488 53.6225 186.12C54.1932 185.752 54.8785 185.568 55.6785 185.568C56.4572 185.568 57.1158 185.736 57.6545 186.072C58.1932 186.408 58.6012 186.883 58.8785 187.496C59.1612 188.104 59.3025 188.827 59.3025 189.664V190.208H53.3745C53.3745 190.731 53.4598 191.205 53.6305 191.632C53.8065 192.053 54.0705 192.389 54.4225 192.64C54.7745 192.891 55.2198 193.016 55.7585 193.016C56.2865 193.016 56.7398 192.893 57.1185 192.648C57.5025 192.403 57.7478 192.048 57.8545 191.584H59.2465C59.1505 192.144 58.9265 192.616 58.5745 193C58.2278 193.384 57.8092 193.675 57.3185 193.872C56.8332 194.064 56.3212 194.16 55.7825 194.16ZM53.3825 189.208H57.8785C57.8785 188.733 57.7985 188.307 57.6385 187.928C57.4785 187.544 57.2332 187.243 56.9025 187.024C56.5772 186.8 56.1665 186.688 55.6705 186.688C55.1532 186.688 54.7238 186.813 54.3825 187.064C54.0412 187.309 53.7878 187.627 53.6225 188.016C53.4572 188.4 53.3772 188.797 53.3825 189.208ZM61.349 194V185.728H62.757V187.32C62.8957 186.925 63.0903 186.6 63.341 186.344C63.5917 186.083 63.877 185.888 64.197 185.76C64.5223 185.632 64.8583 185.568 65.205 185.568C65.3277 185.568 65.4477 185.576 65.565 185.592C65.6823 185.608 65.773 185.635 65.837 185.672V187.104C65.757 187.067 65.653 187.043 65.525 187.032C65.4023 187.016 65.2983 187.008 65.213 187.008C64.8823 186.987 64.573 187.008 64.285 187.072C63.997 187.131 63.7437 187.235 63.525 187.384C63.3063 187.533 63.133 187.731 63.005 187.976C62.8823 188.216 62.821 188.509 62.821 188.856V194H61.349ZM67.639 194V185.728H69.071V194H67.639ZM67.599 183.976V182.44H69.111V183.976H67.599ZM75.0481 194.16C74.2801 194.16 73.6028 193.992 73.0161 193.656C72.4295 193.32 71.9708 192.837 71.6401 192.208C71.3095 191.579 71.1441 190.824 71.1441 189.944C71.1441 189.075 71.2935 188.312 71.5921 187.656C71.8908 187 72.3228 186.488 72.8881 186.12C73.4588 185.752 74.1441 185.568 74.9441 185.568C75.7228 185.568 76.3815 185.736 76.9201 186.072C77.4588 186.408 77.8668 186.883 78.1441 187.496C78.4268 188.104 78.5681 188.827 78.5681 189.664V190.208H72.6401C72.6401 190.731 72.7255 191.205 72.8961 191.632C73.0721 192.053 73.3361 192.389 73.6881 192.64C74.0401 192.891 74.4855 193.016 75.0241 193.016C75.5521 193.016 76.0055 192.893 76.3841 192.648C76.7681 192.403 77.0135 192.048 77.1201 191.584H78.5121C78.4161 192.144 78.1921 192.616 77.8401 193C77.4935 193.384 77.0748 193.675 76.5841 193.872C76.0988 194.064 75.5868 194.16 75.0481 194.16ZM72.6481 189.208H77.1441C77.1441 188.733 77.0641 188.307 76.9041 187.928C76.7441 187.544 76.4988 187.243 76.1681 187.024C75.8428 186.8 75.4321 186.688 74.9361 186.688C74.4188 186.688 73.9895 186.813 73.6481 187.064C73.3068 187.309 73.0535 187.627 72.8881 188.016C72.7228 188.4 72.6428 188.797 72.6481 189.208ZM80.6146 194V185.728H82.0466V186.928C82.18 186.699 82.364 186.483 82.5986 186.28C82.8386 186.077 83.1266 185.915 83.4626 185.792C83.804 185.669 84.196 185.608 84.6386 185.608C85.1613 185.608 85.6413 185.712 86.0786 185.92C86.5213 186.128 86.8733 186.453 87.1346 186.896C87.4013 187.333 87.5346 187.899 87.5346 188.592V194H86.0546V188.736C86.0546 188.091 85.884 187.613 85.5426 187.304C85.2066 186.989 84.7693 186.832 84.2306 186.832C83.8573 186.832 83.508 186.893 83.1826 187.016C82.8573 187.133 82.5933 187.315 82.3906 187.56C82.188 187.8 82.0866 188.104 82.0866 188.472V194H80.6146ZM93.177 194.16C92.4303 194.16 91.769 193.997 91.193 193.672C90.6223 193.347 90.1743 192.867 89.849 192.232C89.529 191.597 89.369 190.819 89.369 189.896C89.369 189.032 89.5157 188.277 89.809 187.632C90.1077 186.981 90.5397 186.475 91.105 186.112C91.6757 185.749 92.3663 185.568 93.177 185.568C93.769 185.568 94.2997 185.683 94.769 185.912C95.2437 186.136 95.633 186.456 95.937 186.872C96.241 187.288 96.4277 187.779 96.497 188.344H95.185C95.137 188.056 95.025 187.792 94.849 187.552C94.6783 187.312 94.4517 187.12 94.169 186.976C93.8917 186.832 93.5637 186.76 93.185 186.76C92.4757 186.76 91.897 187.016 91.449 187.528C91.0063 188.04 90.785 188.824 90.785 189.88C90.785 190.835 90.9877 191.6 91.393 192.176C91.8037 192.747 92.4063 193.032 93.201 193.032C93.5797 193.032 93.9103 192.96 94.193 192.816C94.4757 192.667 94.7023 192.472 94.873 192.232C95.0437 191.987 95.153 191.725 95.201 191.448H96.489C96.4197 192.003 96.2303 192.483 95.921 192.888C95.617 193.293 95.2277 193.608 94.753 193.832C94.2837 194.051 93.7583 194.16 93.177 194.16ZM102.001 194.16C101.233 194.16 100.556 193.992 99.9693 193.656C99.3826 193.32 98.9239 192.837 98.5933 192.208C98.2626 191.579 98.0973 190.824 98.0973 189.944C98.0973 189.075 98.2466 188.312 98.5453 187.656C98.8439 187 99.2759 186.488 99.8413 186.12C100.412 185.752 101.097 185.568 101.897 185.568C102.676 185.568 103.335 185.736 103.873 186.072C104.412 186.408 104.82 186.883 105.097 187.496C105.38 188.104 105.521 188.827 105.521 189.664V190.208H99.5933C99.5933 190.731 99.6786 191.205 99.8493 191.632C100.025 192.053 100.289 192.389 100.641 192.64C100.993 192.891 101.439 193.016 101.977 193.016C102.505 193.016 102.959 192.893 103.337 192.648C103.721 192.403 103.967 192.048 104.073 191.584H105.465C105.369 192.144 105.145 192.616 104.793 193C104.447 193.384 104.028 193.675 103.537 193.872C103.052 194.064 102.54 194.16 102.001 194.16ZM99.6013 189.208H104.097C104.097 188.733 104.017 188.307 103.857 187.928C103.697 187.544 103.452 187.243 103.121 187.024C102.796 186.8 102.385 186.688 101.889 186.688C101.372 186.688 100.943 186.813 100.601 187.064C100.26 187.309 100.007 187.627 99.8413 188.016C99.6759 188.4 99.5959 188.797 99.6013 189.208ZM110.497 194.16C109.921 194.16 109.385 194.072 108.889 193.896C108.398 193.715 107.99 193.435 107.665 193.056C107.34 192.672 107.137 192.184 107.057 191.592H108.401C108.47 191.917 108.604 192.189 108.801 192.408C108.998 192.621 109.241 192.784 109.529 192.896C109.822 193.003 110.142 193.056 110.489 193.056C111.049 193.056 111.5 192.952 111.841 192.744C112.182 192.536 112.353 192.216 112.353 191.784C112.353 191.48 112.262 191.237 112.081 191.056C111.905 190.869 111.628 190.733 111.249 190.648L109.537 190.224C108.87 190.064 108.337 189.813 107.937 189.472C107.542 189.131 107.342 188.653 107.337 188.04C107.337 187.555 107.454 187.128 107.689 186.76C107.924 186.392 108.273 186.101 108.737 185.888C109.206 185.675 109.79 185.568 110.489 185.568C111.39 185.568 112.116 185.771 112.665 186.176C113.214 186.576 113.502 187.165 113.529 187.944H112.217C112.164 187.549 111.988 187.237 111.689 187.008C111.39 186.773 110.985 186.656 110.473 186.656C109.95 186.656 109.521 186.763 109.185 186.976C108.854 187.184 108.689 187.509 108.689 187.952C108.689 188.245 108.806 188.477 109.041 188.648C109.281 188.813 109.628 188.952 110.081 189.064L111.745 189.48C112.124 189.581 112.438 189.715 112.689 189.88C112.94 190.045 113.137 190.229 113.281 190.432C113.425 190.635 113.526 190.848 113.585 191.072C113.649 191.291 113.681 191.501 113.681 191.704C113.681 192.211 113.556 192.648 113.305 193.016C113.054 193.379 112.692 193.661 112.217 193.864C111.742 194.061 111.169 194.16 110.497 194.16ZM121.101 194L118.541 185.728H119.917L121.805 192.088H121.933L123.797 185.728H124.917L126.853 192.072H126.989L128.797 185.728H130.189L127.677 194H126.221L124.341 187.896L122.541 194H121.101ZM131.873 194V185.728H133.305V194H131.873ZM131.833 183.976V182.44H133.345V183.976H131.833ZM138.819 194.04C138.248 194.04 137.805 193.963 137.491 193.808C137.176 193.653 136.955 193.424 136.827 193.12C136.704 192.816 136.643 192.443 136.643 192V186.808H135.299V185.728H136.683L137.043 183.32H138.131V185.72H139.995V186.808H138.131V191.952C138.131 192.245 138.16 192.461 138.219 192.6C138.283 192.733 138.387 192.819 138.531 192.856C138.675 192.893 138.877 192.912 139.139 192.912H140.043V193.904C139.941 193.941 139.787 193.973 139.579 194C139.376 194.027 139.123 194.04 138.819 194.04ZM142.005 194V182.112H143.445V186.944C143.584 186.715 143.771 186.501 144.005 186.304C144.24 186.101 144.525 185.939 144.861 185.816C145.197 185.688 145.587 185.624 146.029 185.624C146.568 185.624 147.056 185.725 147.493 185.928C147.931 186.125 148.277 186.408 148.533 186.776C148.789 187.144 148.917 187.581 148.917 188.088V194H147.437V188.384C147.437 187.888 147.267 187.507 146.925 187.24C146.589 186.968 146.149 186.832 145.605 186.832C145.237 186.832 144.891 186.893 144.565 187.016C144.24 187.133 143.976 187.315 143.773 187.56C143.576 187.8 143.477 188.107 143.477 188.48V194H142.005ZM157.435 194.16C156.896 194.16 156.421 194.067 156.011 193.88C155.605 193.688 155.285 193.413 155.051 193.056C154.821 192.699 154.707 192.267 154.707 191.76C154.707 190.843 155.027 190.16 155.667 189.712C156.307 189.264 157.333 189.024 158.747 188.992L160.219 188.952V188.304C160.219 187.797 160.067 187.397 159.763 187.104C159.459 186.805 158.989 186.656 158.355 186.656C157.88 186.661 157.461 186.773 157.099 186.992C156.736 187.211 156.504 187.568 156.403 188.064H155.099C155.131 187.525 155.28 187.072 155.547 186.704C155.819 186.331 156.2 186.048 156.691 185.856C157.181 185.664 157.76 185.568 158.427 185.568C159.147 185.568 159.744 185.669 160.219 185.872C160.699 186.075 161.056 186.373 161.291 186.768C161.531 187.163 161.651 187.648 161.651 188.224V194H160.387L160.275 192.448C159.96 193.093 159.555 193.541 159.059 193.792C158.568 194.037 158.027 194.16 157.435 194.16ZM157.875 193.096C158.157 193.096 158.435 193.045 158.707 192.944C158.984 192.843 159.235 192.707 159.459 192.536C159.688 192.36 159.872 192.165 160.011 191.952C160.149 191.733 160.219 191.509 160.219 191.28V189.864L158.995 189.888C158.36 189.899 157.832 189.963 157.411 190.08C156.989 190.197 156.672 190.381 156.459 190.632C156.245 190.883 156.139 191.211 156.139 191.616C156.139 192.08 156.301 192.443 156.627 192.704C156.952 192.965 157.368 193.096 157.875 193.096ZM167.849 194V185.728H169.257V187.32C169.396 186.925 169.59 186.6 169.841 186.344C170.092 186.083 170.377 185.888 170.697 185.76C171.022 185.632 171.358 185.568 171.705 185.568C171.828 185.568 171.948 185.576 172.065 185.592C172.182 185.608 172.273 185.635 172.337 185.672V187.104C172.257 187.067 172.153 187.043 172.025 187.032C171.902 187.016 171.798 187.008 171.713 187.008C171.382 186.987 171.073 187.008 170.785 187.072C170.497 187.131 170.244 187.235 170.025 187.384C169.806 187.533 169.633 187.731 169.505 187.976C169.382 188.216 169.321 188.509 169.321 188.856V194H167.849ZM177.47 194.16C176.702 194.16 176.025 193.992 175.438 193.656C174.851 193.32 174.393 192.837 174.062 192.208C173.731 191.579 173.566 190.824 173.566 189.944C173.566 189.075 173.715 188.312 174.014 187.656C174.313 187 174.745 186.488 175.31 186.12C175.881 185.752 176.566 185.568 177.366 185.568C178.145 185.568 178.803 185.736 179.342 186.072C179.881 186.408 180.289 186.883 180.566 187.496C180.849 188.104 180.99 188.827 180.99 189.664V190.208H175.062C175.062 190.731 175.147 191.205 175.318 191.632C175.494 192.053 175.758 192.389 176.11 192.64C176.462 192.891 176.907 193.016 177.446 193.016C177.974 193.016 178.427 192.893 178.806 192.648C179.19 192.403 179.435 192.048 179.542 191.584H180.934C180.838 192.144 180.614 192.616 180.262 193C179.915 193.384 179.497 193.675 179.006 193.872C178.521 194.064 178.009 194.16 177.47 194.16ZM175.07 189.208H179.566C179.566 188.733 179.486 188.307 179.326 187.928C179.166 187.544 178.921 187.243 178.59 187.024C178.265 186.8 177.854 186.688 177.358 186.688C176.841 186.688 176.411 186.813 176.07 187.064C175.729 187.309 175.475 187.627 175.31 188.016C175.145 188.4 175.065 188.797 175.07 189.208ZM185.966 194.16C185.39 194.16 184.854 194.072 184.358 193.896C183.867 193.715 183.459 193.435 183.134 193.056C182.808 192.672 182.606 192.184 182.526 191.592H183.87C183.939 191.917 184.072 192.189 184.27 192.408C184.467 192.621 184.71 192.784 184.998 192.896C185.291 193.003 185.611 193.056 185.958 193.056C186.518 193.056 186.968 192.952 187.31 192.744C187.651 192.536 187.822 192.216 187.822 191.784C187.822 191.48 187.731 191.237 187.55 191.056C187.374 190.869 187.096 190.733 186.718 190.648L185.006 190.224C184.339 190.064 183.806 189.813 183.406 189.472C183.011 189.131 182.811 188.653 182.806 188.04C182.806 187.555 182.923 187.128 183.158 186.76C183.392 186.392 183.742 186.101 184.206 185.888C184.675 185.675 185.259 185.568 185.958 185.568C186.859 185.568 187.584 185.771 188.134 186.176C188.683 186.576 188.971 187.165 188.998 187.944H187.686C187.632 187.549 187.456 187.237 187.158 187.008C186.859 186.773 186.454 186.656 185.942 186.656C185.419 186.656 184.99 186.763 184.654 186.976C184.323 187.184 184.158 187.509 184.158 187.952C184.158 188.245 184.275 188.477 184.51 188.648C184.75 188.813 185.096 188.952 185.55 189.064L187.214 189.48C187.592 189.581 187.907 189.715 188.158 189.88C188.408 190.045 188.606 190.229 188.75 190.432C188.894 190.635 188.995 190.848 189.054 191.072C189.118 191.291 189.15 191.501 189.15 191.704C189.15 192.211 189.024 192.648 188.774 193.016C188.523 193.379 188.16 193.661 187.686 193.864C187.211 194.061 186.638 194.16 185.966 194.16ZM194.579 194.16C193.811 194.16 193.134 193.992 192.547 193.656C191.961 193.32 191.502 192.837 191.171 192.208C190.841 191.579 190.675 190.824 190.675 189.944C190.675 189.075 190.825 188.312 191.123 187.656C191.422 187 191.854 186.488 192.419 186.12C192.99 185.752 193.675 185.568 194.475 185.568C195.254 185.568 195.913 185.736 196.451 186.072C196.99 186.408 197.398 186.883 197.675 187.496C197.958 188.104 198.099 188.827 198.099 189.664V190.208H192.171C192.171 190.731 192.257 191.205 192.427 191.632C192.603 192.053 192.867 192.389 193.219 192.64C193.571 192.891 194.017 193.016 194.555 193.016C195.083 193.016 195.537 192.893 195.915 192.648C196.299 192.403 196.545 192.048 196.651 191.584H198.043C197.947 192.144 197.723 192.616 197.371 193C197.025 193.384 196.606 193.675 196.115 193.872C195.63 194.064 195.118 194.16 194.579 194.16ZM192.179 189.208H196.675C196.675 188.733 196.595 188.307 196.435 187.928C196.275 187.544 196.03 187.243 195.699 187.024C195.374 186.8 194.963 186.688 194.467 186.688C193.95 186.688 193.521 186.813 193.179 187.064C192.838 187.309 192.585 187.627 192.419 188.016C192.254 188.4 192.174 188.797 192.179 189.208ZM202.372 194.16C201.833 194.16 201.359 194.067 200.948 193.88C200.543 193.688 200.223 193.413 199.988 193.056C199.759 192.699 199.644 192.267 199.644 191.76C199.644 190.843 199.964 190.16 200.604 189.712C201.244 189.264 202.271 189.024 203.684 188.992L205.156 188.952V188.304C205.156 187.797 205.004 187.397 204.7 187.104C204.396 186.805 203.927 186.656 203.292 186.656C202.817 186.661 202.399 186.773 202.036 186.992C201.673 187.211 201.441 187.568 201.34 188.064H200.036C200.068 187.525 200.217 187.072 200.484 186.704C200.756 186.331 201.137 186.048 201.628 185.856C202.119 185.664 202.697 185.568 203.364 185.568C204.084 185.568 204.681 185.669 205.156 185.872C205.636 186.075 205.993 186.373 206.228 186.768C206.468 187.163 206.588 187.648 206.588 188.224V194H205.324L205.212 192.448C204.897 193.093 204.492 193.541 203.996 193.792C203.505 194.037 202.964 194.16 202.372 194.16ZM202.812 193.096C203.095 193.096 203.372 193.045 203.644 192.944C203.921 192.843 204.172 192.707 204.396 192.536C204.625 192.36 204.809 192.165 204.948 191.952C205.087 191.733 205.156 191.509 205.156 191.28V189.864L203.932 189.888C203.297 189.899 202.769 189.963 202.348 190.08C201.927 190.197 201.609 190.381 201.396 190.632C201.183 190.883 201.076 191.211 201.076 191.616C201.076 192.08 201.239 192.443 201.564 192.704C201.889 192.965 202.305 193.096 202.812 193.096ZM208.896 194V185.728H210.304V187.32C210.443 186.925 210.637 186.6 210.888 186.344C211.139 186.083 211.424 185.888 211.744 185.76C212.069 185.632 212.405 185.568 212.752 185.568C212.875 185.568 212.995 185.576 213.112 185.592C213.229 185.608 213.32 185.635 213.384 185.672V187.104C213.304 187.067 213.2 187.043 213.072 187.032C212.949 187.016 212.845 187.008 212.76 187.008C212.429 186.987 212.12 187.008 211.832 187.072C211.544 187.131 211.291 187.235 211.072 187.384C210.853 187.533 210.68 187.731 210.552 187.976C210.429 188.216 210.368 188.509 210.368 188.856V194H208.896ZM218.349 194.16C217.602 194.16 216.941 193.997 216.365 193.672C215.794 193.347 215.346 192.867 215.021 192.232C214.701 191.597 214.541 190.819 214.541 189.896C214.541 189.032 214.688 188.277 214.981 187.632C215.28 186.981 215.712 186.475 216.277 186.112C216.848 185.749 217.538 185.568 218.349 185.568C218.941 185.568 219.472 185.683 219.941 185.912C220.416 186.136 220.805 186.456 221.109 186.872C221.413 187.288 221.6 187.779 221.669 188.344H220.357C220.309 188.056 220.197 187.792 220.021 187.552C219.85 187.312 219.624 187.12 219.341 186.976C219.064 186.832 218.736 186.76 218.357 186.76C217.648 186.76 217.069 187.016 216.621 187.528C216.178 188.04 215.957 188.824 215.957 189.88C215.957 190.835 216.16 191.6 216.565 192.176C216.976 192.747 217.578 193.032 218.373 193.032C218.752 193.032 219.082 192.96 219.365 192.816C219.648 192.667 219.874 192.472 220.045 192.232C220.216 191.987 220.325 191.725 220.373 191.448H221.661C221.592 192.003 221.402 192.483 221.093 192.888C220.789 193.293 220.4 193.608 219.925 193.832C219.456 194.051 218.93 194.16 218.349 194.16ZM223.63 194V182.112H225.07V186.944C225.209 186.715 225.396 186.501 225.63 186.304C225.865 186.101 226.15 185.939 226.486 185.816C226.822 185.688 227.212 185.624 227.654 185.624C228.193 185.624 228.681 185.725 229.118 185.928C229.556 186.125 229.902 186.408 230.158 186.776C230.414 187.144 230.542 187.581 230.542 188.088V194H229.062V188.384C229.062 187.888 228.892 187.507 228.55 187.24C228.214 186.968 227.774 186.832 227.23 186.832C226.862 186.832 226.516 186.893 226.19 187.016C225.865 187.133 225.601 187.315 225.398 187.56C225.201 187.8 225.102 188.107 225.102 188.48V194H223.63ZM236.345 194.16C235.577 194.16 234.9 193.992 234.313 193.656C233.726 193.32 233.268 192.837 232.937 192.208C232.606 191.579 232.441 190.824 232.441 189.944C232.441 189.075 232.59 188.312 232.889 187.656C233.188 187 233.62 186.488 234.185 186.12C234.756 185.752 235.441 185.568 236.241 185.568C237.02 185.568 237.678 185.736 238.217 186.072C238.756 186.408 239.164 186.883 239.441 187.496C239.724 188.104 239.865 188.827 239.865 189.664V190.208H233.937C233.937 190.731 234.022 191.205 234.193 191.632C234.369 192.053 234.633 192.389 234.985 192.64C235.337 192.891 235.782 193.016 236.321 193.016C236.849 193.016 237.302 192.893 237.681 192.648C238.065 192.403 238.31 192.048 238.417 191.584H239.809C239.713 192.144 239.489 192.616 239.137 193C238.79 193.384 238.372 193.675 237.881 193.872C237.396 194.064 236.884 194.16 236.345 194.16ZM233.945 189.208H238.441C238.441 188.733 238.361 188.307 238.201 187.928C238.041 187.544 237.796 187.243 237.465 187.024C237.14 186.8 236.729 186.688 236.233 186.688C235.716 186.688 235.286 186.813 234.945 187.064C234.604 187.309 234.35 187.627 234.185 188.016C234.02 188.4 233.94 188.797 233.945 189.208ZM241.912 194V185.728H243.32V187.32C243.458 186.925 243.653 186.6 243.904 186.344C244.154 186.083 244.44 185.888 244.76 185.76C245.085 185.632 245.421 185.568 245.768 185.568C245.89 185.568 246.01 185.576 246.128 185.592C246.245 185.608 246.336 185.635 246.4 185.672V187.104C246.32 187.067 246.216 187.043 246.088 187.032C245.965 187.016 245.861 187.008 245.776 187.008C245.445 186.987 245.136 187.008 244.848 187.072C244.56 187.131 244.306 187.235 244.088 187.384C243.869 187.533 243.696 187.731 243.568 187.976C243.445 188.216 243.384 188.509 243.384 188.856V194H241.912ZM246.646 194V192.112H248.406V194H246.646Z" fill="#1A1B1D" style="fill:#1A1B1D;fill:color(display-p3 0.1020 0.1059 0.1137);fill-opacity:1;"/>
<path d="M24 216C24 213.791 25.7909 212 28 212H144C146.209 212 148 213.791 148 216V244C148 246.209 146.209 248 144 248H28C25.7909 248 24 246.209 24 244V216Z" fill="#0A6190" style="fill:#0A6190;fill:color(display-p3 0.0392 0.3804 0.5647);fill-opacity:1;"/>
<path d="M49.3039 235V224.878H51.3619V233.271H55.7579V235H49.3039ZM60.3133 235.14C59.5946 235.14 58.9623 234.991 58.4163 234.692C57.8749 234.389 57.4526 233.962 57.1493 233.411C56.8459 232.86 56.6943 232.212 56.6943 231.465C56.6943 230.742 56.8319 230.091 57.1073 229.512C57.3873 228.929 57.7886 228.469 58.3113 228.133C58.8339 227.792 59.4663 227.622 60.2083 227.622C60.9456 227.622 61.5639 227.778 62.0633 228.091C62.5626 228.399 62.9406 228.831 63.1973 229.386C63.4539 229.937 63.5823 230.574 63.5823 231.297V231.85H58.7173C58.7173 232.219 58.7779 232.541 58.8993 232.816C59.0206 233.087 59.1956 233.297 59.4243 233.446C59.6576 233.591 59.9376 233.663 60.2643 233.663C60.6143 233.663 60.9199 233.588 61.1813 233.439C61.4426 233.29 61.6269 233.045 61.7343 232.704H63.5753C63.4913 233.217 63.2859 233.656 62.9593 234.02C62.6326 234.384 62.2359 234.662 61.7693 234.853C61.3026 235.044 60.8173 235.14 60.3133 235.14ZM58.7173 230.632H61.6713C61.6713 230.343 61.6153 230.077 61.5033 229.834C61.3959 229.591 61.2326 229.4 61.0133 229.26C60.7986 229.12 60.5279 229.05 60.2013 229.05C59.8886 229.05 59.6203 229.127 59.3963 229.281C59.1769 229.43 59.0066 229.626 58.8853 229.869C58.7686 230.112 58.7126 230.366 58.7173 230.632ZM67.1627 235.14C66.7053 235.14 66.29 235.054 65.9167 234.881C65.548 234.708 65.2563 234.459 65.0417 234.132C64.827 233.801 64.7197 233.399 64.7197 232.928C64.7197 232.135 65.016 231.533 65.6087 231.122C66.2013 230.707 67.137 230.492 68.4157 230.478L69.3257 230.464V230.03C69.3257 229.699 69.2277 229.444 69.0317 229.267C68.8403 229.085 68.5393 228.996 68.1287 229.001C67.8347 229.006 67.5523 229.076 67.2817 229.211C67.0157 229.346 66.8313 229.582 66.7287 229.918H65.0277C65.0557 229.395 65.2073 228.966 65.4827 228.63C65.7627 228.289 66.1383 228.037 66.6097 227.874C67.081 227.706 67.62 227.622 68.2267 227.622C68.964 227.622 69.5567 227.715 70.0047 227.902C70.4527 228.084 70.777 228.348 70.9777 228.693C71.183 229.034 71.2857 229.44 71.2857 229.911V235H69.5777L69.4097 233.754C69.1623 234.277 68.852 234.638 68.4787 234.839C68.11 235.04 67.6713 235.14 67.1627 235.14ZM67.8557 233.796C68.0377 233.796 68.215 233.763 68.3877 233.698C68.565 233.628 68.7237 233.537 68.8637 233.425C69.0037 233.308 69.1133 233.178 69.1927 233.033C69.2767 232.888 69.321 232.739 69.3257 232.585V231.514L68.5907 231.528C68.25 231.533 67.9327 231.575 67.6387 231.654C67.3447 231.729 67.1067 231.852 66.9247 232.025C66.7473 232.198 66.6587 232.431 66.6587 232.725C66.6587 233.061 66.773 233.325 67.0017 233.516C67.235 233.703 67.5197 233.796 67.8557 233.796ZM72.9434 235V227.762H74.9104V229.477C75.027 229.108 75.1904 228.786 75.4004 228.511C75.615 228.231 75.874 228.014 76.1774 227.86C76.4807 227.701 76.8237 227.622 77.2064 227.622C77.2717 227.622 77.3324 227.627 77.3884 227.636C77.449 227.641 77.4934 227.65 77.5214 227.664V229.61C77.4794 229.591 77.428 229.58 77.3674 229.575C77.3114 229.57 77.26 229.566 77.2134 229.561C76.812 229.528 76.469 229.54 76.1844 229.596C75.8997 229.652 75.6687 229.748 75.4914 229.883C75.314 230.018 75.1857 230.184 75.1064 230.38C75.027 230.576 74.9874 230.795 74.9874 231.038V235H72.9434ZM78.7129 235V227.762H80.7219V228.784C80.8339 228.607 80.9786 228.436 81.1559 228.273C81.3379 228.105 81.5666 227.967 81.8419 227.86C82.1172 227.753 82.4439 227.699 82.8219 227.699C83.2652 227.699 83.6782 227.785 84.0609 227.958C84.4482 228.131 84.7609 228.404 84.9989 228.777C85.2369 229.146 85.3559 229.629 85.3559 230.226V235H83.3119V230.478C83.3119 230.086 83.1952 229.792 82.9619 229.596C82.7286 229.4 82.4439 229.302 82.1079 229.302C81.8839 229.302 81.6669 229.342 81.4569 229.421C81.2516 229.5 81.0836 229.619 80.9529 229.778C80.8222 229.937 80.7569 230.133 80.7569 230.366V235H78.7129ZM90.4289 235V224.878H93.3969L95.7139 232.095L98.0519 224.878H101.013V235H98.9479V227.258L96.5119 235H94.9089L92.4869 227.293V235H90.4289ZM105.987 235.14C105.278 235.14 104.659 234.988 104.132 234.685C103.609 234.382 103.203 233.952 102.914 233.397C102.629 232.842 102.487 232.184 102.487 231.423C102.487 230.662 102.629 229.997 102.914 229.428C103.203 228.859 103.609 228.415 104.132 228.098C104.659 227.781 105.28 227.622 105.994 227.622C106.708 227.622 107.326 227.778 107.849 228.091C108.372 228.399 108.775 228.838 109.06 229.407C109.345 229.976 109.487 230.648 109.487 231.423C109.487 232.151 109.347 232.795 109.067 233.355C108.792 233.91 108.393 234.347 107.87 234.664C107.352 234.981 106.724 235.14 105.987 235.14ZM105.994 233.621C106.353 233.621 106.643 233.516 106.862 233.306C107.081 233.096 107.24 232.821 107.338 232.48C107.436 232.135 107.485 231.759 107.485 231.353C107.485 230.97 107.441 230.609 107.352 230.268C107.263 229.927 107.109 229.652 106.89 229.442C106.671 229.232 106.372 229.127 105.994 229.127C105.635 229.127 105.343 229.227 105.119 229.428C104.9 229.624 104.739 229.892 104.636 230.233C104.533 230.569 104.482 230.942 104.482 231.353C104.482 231.731 104.529 232.095 104.622 232.445C104.715 232.79 104.872 233.073 105.091 233.292C105.31 233.511 105.611 233.621 105.994 233.621ZM110.883 235V227.762H112.85V229.477C112.966 229.108 113.13 228.786 113.34 228.511C113.554 228.231 113.813 228.014 114.117 227.86C114.42 227.701 114.763 227.622 115.146 227.622C115.211 227.622 115.272 227.627 115.328 227.636C115.388 227.641 115.433 227.65 115.461 227.664V229.61C115.419 229.591 115.367 229.58 115.307 229.575C115.251 229.57 115.199 229.566 115.153 229.561C114.751 229.528 114.408 229.54 114.124 229.596C113.839 229.652 113.608 229.748 113.431 229.883C113.253 230.018 113.125 230.184 113.046 230.38C112.966 230.576 112.927 230.795 112.927 231.038V235H110.883ZM119.964 235.14C119.245 235.14 118.613 234.991 118.067 234.692C117.525 234.389 117.103 233.962 116.8 233.411C116.496 232.86 116.345 232.212 116.345 231.465C116.345 230.742 116.482 230.091 116.758 229.512C117.038 228.929 117.439 228.469 117.962 228.133C118.484 227.792 119.117 227.622 119.859 227.622C120.596 227.622 121.214 227.778 121.714 228.091C122.213 228.399 122.591 228.831 122.848 229.386C123.104 229.937 123.233 230.574 123.233 231.297V231.85H118.368C118.368 232.219 118.428 232.541 118.55 232.816C118.671 233.087 118.846 233.297 119.075 233.446C119.308 233.591 119.588 233.663 119.915 233.663C120.265 233.663 120.57 233.588 120.832 233.439C121.093 233.29 121.277 233.045 121.385 232.704H123.226C123.142 233.217 122.936 233.656 122.61 234.02C122.283 234.384 121.886 234.662 121.42 234.853C120.953 235.044 120.468 235.14 119.964 235.14ZM118.368 230.632H121.322C121.322 230.343 121.266 230.077 121.154 229.834C121.046 229.591 120.883 229.4 120.664 229.26C120.449 229.12 120.178 229.05 119.852 229.05C119.539 229.05 119.271 229.127 119.047 229.281C118.827 229.43 118.657 229.626 118.536 229.869C118.419 230.112 118.363 230.366 118.368 230.632Z" fill="white" style="fill:white;fill-opacity:1;"/>
</g>
<rect x="0.5" y="0.5" width="273" height="271" rx="11.5" stroke="#E2E3E5" style="stroke:#E2E3E5;stroke:color(display-p3 0.8863 0.8902 0.8980);stroke-opacity:1;"/>
<defs>
<clipPath id="clip0_135_545">
<rect width="274" height="272" rx="12" fill="white" style="fill:white;fill-opacity:1;"/>
</clipPath>
</defs>
</svg>
